<?xml version="1.0" standalone="no"?><!DOCTYPE svg PUBLIC "-//W3C//DTD SVG 1.1//EN" "http://www.w3.org/Graphics/SVG/1.1/DTD/svg11.dtd"><svg class="icon" width="200px" height="200.00px" viewBox="0 0 1024 1024" version="1.1" xmlns="http://www.w3.org/2000/svg"><path fill="#ffffff" d="M511.23 286.16l-3.35 4.06h6.51z"  /><path fill="#ffffff" d="M780.02 929.56v-0.34c-1.06 0.12-2.12 0.24-3.19 0.34h3.19z"  /><path fill="#ffffff" d="M686.56 384.55c-51.06 0-99.06 22.3-135.16 62.79-36.1 40.49-55.99 94.32-55.99 151.58h53.5c0-85.12 61.75-154.36 137.64-154.36 75.9 0 137.64 69.25 137.64 154.36h53.5c0-57.26-19.88-111.09-55.98-151.58-36.09-40.5-84.09-62.79-135.15-62.79z"  /><path fill="#ffffff" d="M877.71 773.93v-53.39c56.21-10.66 101.01-59.4 112.49-121.66 3.03-16.41-9.79-31.5-26.48-31.5-12.66 0-23.75 8.81-26.28 21.22-6.91 33.97-30.04 61.08-59.73 70.52v-28.14H494.34v26.31c-27.15-10.76-48.02-36.56-54.59-68.43-2.58-12.5-13.56-21.49-26.33-21.49-16.86 0-29.51 15.33-26.42 31.9 11.24 60.18 53.64 107.66 107.33 120.19V775c-53.69 12.52-96.09 60.01-107.33 120.19-3.1 16.57 9.56 31.9 26.41 31.9 12.67 0 23.75-8.83 26.28-21.24 6.87-33.74 29.76-60.72 59.18-70.32 7.8 39.54 25.45 75.84 51.6 105.16 36.2 40.6 84.34 62.96 135.54 62.96 51.2 0 99.34-22.36 135.54-62.96 26.46-29.67 44.21-66.49 51.86-106.57 31.59 8.07 56.55 35.92 63.91 71.28 2.62 12.57 13.53 21.68 26.37 21.68 16.69 0 29.51-15.08 26.49-31.5-11.46-62.25-56.27-110.99-112.47-121.65z m-53.5 14.76c0 85.45-61.99 154.96-138.18 154.96s-138.18-69.52-138.18-154.96v-97.7h276.36v97.7z"  /><path fill="#ffffff" d="M689.04 849.13c14.77-0.03 26.73-12.02 26.71-26.79l-0.1-71.69c-0.02-14.78-12.02-26.74-26.8-26.71-14.77 0.03-26.73 12.02-26.71 26.79l0.1 71.69c0.03 14.77 12.03 26.73 26.8 26.71zM123.12 97.44h709.39v273h60v-303c0-16.57-13.43-30-30-30H93.12c-16.57 0-30 13.43-30 30v895.11c0 16.57 13.43 30 30 30h246.42v-60H123.12V97.44z"  /><path fill="#ffffff" d="M730.86 201.16H224.78c-16.57 0-30 13.43-30 30s13.43 30 30 30h506.07c16.57 0 30-13.43 30-30 0.01-16.57-13.43-30-29.99-30zM481.14 390.38H224.78c-16.57 0-30 13.43-30 30s13.43 30 30 30h256.35c16.57 0 30-13.43 30-30 0.01-16.56-13.42-30-29.99-30zM332.37 579.61H224.78c-16.57 0-30 13.43-30 30s13.43 30 30 30h107.58c16.57 0 30-13.43 30-30 0.01-16.57-13.42-30-29.99-30zM332.37 768.83H224.78c-16.57 0-30 13.43-30 30s13.43 30 30 30h107.58c16.57 0 30-13.43 30-30 0.01-16.57-13.42-30-29.99-30z"  /></svg>