<?xml version="1.0" encoding="UTF-8"?>
<svg width="16px" height="17px" viewBox="0 0 16 17" version="1.1" xmlns="http://www.w3.org/2000/svg" xmlns:xlink="http://www.w3.org/1999/xlink">
    <title>显示</title>
    <g id="页面-1" stroke="none" stroke-width="1" fill="none" fill-rule="evenodd">
        <g id="登录页-方案一" transform="translate(-1120.000000, -387.000000)" fill="#8599C0">
            <g id="Group-29-Copy" transform="translate(-690.888889, -388.625000)">
                <g id="Group-13" transform="translate(1564.888889, 582.625000)">
                    <g id="Group-11" transform="translate(40.000000, 190.500000)">
                        <g id="Group-15" transform="translate(9.000000, 0.000000)">
                            <g id="可见-面形" transform="translate(197.000000, 2.750000)">
                                <path d="M8,3.5 C10.1866089,3.5 12.3732177,4.81728546 14.5598266,7.45185637 L14.8028344,7.7499664 C14.9197894,7.89610064 14.9197898,8.10379276 14.8028353,8.24992743 C12.5352235,11.0833091 10.2676118,12.5 8,12.5 C5.81339114,12.5 3.62678227,11.1827145 1.44017341,8.54814363 L1.19716564,8.2500336 C1.08021061,8.10389936 1.08021022,7.89620724 1.19716471,7.75007257 C3.46477647,4.91669086 5.73238824,3.5 8,3.5 Z M8,5 C6.34314575,5 5,6.34314575 5,8 C5,9.65685425 6.34314575,11 8,11 C9.65685425,11 11,9.65685425 11,8 C11,6.34314575 9.65685425,5 8,5 Z M8,6 C9.1045695,6 10,6.8954305 10,8 C10,9.1045695 9.1045695,10 8,10 C6.8954305,10 6,9.1045695 6,8 C6,6.8954305 6.8954305,6 8,6 Z"></path>
                            </g>
                        </g>
                    </g>
                </g>
            </g>
        </g>
    </g>
</svg>