<?xml version="1.0" standalone="no"?>
<!DOCTYPE svg PUBLIC "-//W3C//DTD SVG 1.1//EN" "http://www.w3.org/Graphics/SVG/1.1/DTD/svg11.dtd" >
<svg xmlns="http://www.w3.org/2000/svg">
<metadata>
Created by FontForge 20120731 at Wed May 24 16:33:48 2017
 By admin
</metadata>
<defs>
<font id="iconfont" horiz-adv-x="1024" >
  <font-face 
    font-family="iconfont"
    font-weight="500"
    font-stretch="normal"
    units-per-em="1024"
    panose-1="2 0 6 3 0 0 0 0 0 0"
    ascent="896"
    descent="-128"
    x-height="792"
    bbox="-0.758621 -128 1635 896.951"
    underline-thickness="0"
    underline-position="0"
    unicode-range="U+0078-E6BF"
  />
<missing-glyph 
 />
    <glyph glyph-name=".notdef" 
 />
    <glyph glyph-name=".notdef" 
 />
    <glyph glyph-name=".null" horiz-adv-x="0" 
 />
    <glyph glyph-name="nonmarkingreturn" horiz-adv-x="341" 
 />
    <glyph glyph-name="x" unicode="x" horiz-adv-x="1001" 
d="M281 543q-27 -1 -53 -1h-83q-18 0 -36.5 -6t-32.5 -18.5t-23 -32t-9 -45.5v-76h912v41q0 16 -0.5 30t-0.5 18q0 13 -5 29t-17 29.5t-31.5 22.5t-49.5 9h-133v-97h-438v97zM955 310v-52q0 -23 0.5 -52t0.5 -58t-10.5 -47.5t-26 -30t-33 -16t-31.5 -4.5q-14 -1 -29.5 -0.5
t-29.5 0.5h-32l-45 128h-439l-44 -128h-29h-34q-20 0 -45 1q-25 0 -41 9.5t-25.5 23t-13.5 29.5t-4 30v167h911zM163 247q-12 0 -21 -8.5t-9 -21.5t9 -21.5t21 -8.5q13 0 22 8.5t9 21.5t-9 21.5t-22 8.5zM316 123q-8 -26 -14 -48q-5 -19 -10.5 -37t-7.5 -25t-3 -15t1 -14.5
t9.5 -10.5t21.5 -4h37h67h81h80h64h36q23 0 34 12t2 38q-5 13 -9.5 30.5t-9.5 34.5q-5 19 -11 39h-368zM336 498v228q0 11 2.5 23t10 21.5t20.5 15.5t34 6h188q31 0 51.5 -14.5t20.5 -52.5v-227h-327z" />
    <glyph glyph-name="bc" unicode="&#xe68f;" 
d="M896 896h-768q-53 0 -90.5 -37.5t-37.5 -90.5v-768q0 -53 37.5 -90.5t90.5 -37.5h768q53 0 90.5 37.5t37.5 90.5v768q0 53 -37.5 90.5t-90.5 37.5zM755 832v-269q0 -27 -19 -45.5t-45 -18.5h-358q-26 0 -45 18.5t-19 45.5v269h486zM960 0q0 -27 -18.5 -45.5t-45.5 -18.5
h-768q-27 0 -45.5 18.5t-18.5 45.5v768q0 27 18.5 45.5t45.5 18.5h77v-269q0 -53 37.5 -90.5t90.5 -37.5h358q53 0 90.5 37.5t37.5 90.5v269h77q27 0 45.5 -18.5t18.5 -45.5v-768zM626.5 601q13.5 0 23 9.5t9.5 22.5v86q0 13 -9.5 22.5t-23 9.5t-22.5 -9.5t-9 -22.5v-86
q0 -13 9 -22.5t22.5 -9.5z" />
    <glyph glyph-name="br" unicode="&#xe690;" 
d="M664 398q56 38 88 97.5t32 128.5q0 112 -80 192t-192.5 80t-192.5 -80t-80 -192q0 -69 32 -128.5t86 -96.5q-156 -38 -255 -139t-99 -229q0 -38 43 -69t116 -50.5t162.5 -29.5t187 -10t187.5 10t162.5 29.5t116 50.5t43.5 69q0 128 -100 229t-257 138zM303 623v1
q0 87 61 148t147.5 61t147.5 -61t61 -148q0 -84 -58 -144.5t-141 -63.5l-18 -1q-84 4 -142 64t-58 144v0zM511.5 -64q-88.5 0 -165 7.5t-126.5 19t-86 25t-52 25t-16 18.5q0 86 58.5 159.5t159 116t219.5 42.5h17q119 -1 219.5 -44.5t159 -116t58.5 -157.5q0 -7 -16 -18.5
t-52 -25t-85.5 -25t-126.5 -19t-165.5 -7.5z" />
    <glyph glyph-name="bl" unicode="&#xe691;" 
d="M896 896h-64q-13 0 -22.5 -9.5t-9.5 -22.5t9.5 -22.5t22.5 -9.5h64q27 0 45.5 -18.5t18.5 -45.5v-768q0 -27 -18.5 -45.5t-45.5 -18.5h-768q-27 0 -45.5 18.5t-18.5 45.5v768q0 27 18.5 45.5t45.5 18.5h64q13 0 22.5 9.5t9.5 22.5t-9.5 22.5t-22.5 9.5h-64
q-53 0 -90.5 -37.5t-37.5 -90.5v-768q0 -53 37.5 -90.5t90.5 -37.5h768q53 0 90.5 37.5t37.5 90.5v768q0 53 -37.5 90.5t-90.5 37.5zM358 832h308q13 0 22.5 9.5t9.5 22.5t-9.5 22.5t-22.5 9.5h-308q-13 0 -22.5 -9.5t-9.5 -22.5t9.5 -22.5t22.5 -9.5zM256 498h512
q13 0 22.5 9.5t9.5 22.5t-9.5 22.5t-22.5 9.5h-512q-13 0 -22.5 -9.5t-9.5 -22.5t9.5 -22.5t22.5 -9.5zM256 234h512q13 0 22.5 9.5t9.5 22.5t-9.5 22.5t-22.5 9.5h-512q-13 0 -22.5 -9.5t-9.5 -22.5t9.5 -22.5t22.5 -9.5z" />
    <glyph glyph-name="bq" unicode="&#xe692;" 
d="M987 385l-470 468q-35 43 -91 43h-4h-300q-50 0 -85.5 -36t-36.5 -86v-300q1 -58 44 -97l467 -469q36 -36 86.5 -36t86.5 36l302 302q36 36 36 86.5t-36 86.5zM942 258l-303 -305q-18 -18 -42.5 -18t-41.5 18l-467 469q-23 21 -24 53v299q1 24 18 41t40 17h300h1
q32 0 51 -25l469 -470q17 -17 17 -41.5t-17 -41.5zM290 752v0v0v0zM290 590h-1q-20 0 -34.5 14.5t-14.5 35t14.5 35t34.5 14.5t34.5 -14t14.5 -34v-2q0 -20 -14 -34.5t-34 -14.5v0z" />
    <glyph glyph-name="bj" unicode="&#xe693;" 
d="M1011 886q-9 10 -22 10t-23 -10l-552 -552q-9 -9 -9 -22.5t9 -22.5t22.5 -9t22.5 9l552 553q10 9 10 22t-10 22zM821 421v0q-13 0 -22.5 -9t-9.5 -22v-391q0 -27 -18.5 -45.5t-45.5 -18.5h-594q-26 0 -45 18.5t-19 45.5v675q0 27 19 45.5t45 18.5h382q14 0 23 9.5t9 22.5
t-9 22.5t-23 9.5h-382q-53 0 -90.5 -37.5t-37.5 -90.5v-674q0 -53 37.5 -90.5t90.5 -37.5h594q53 0 90.5 37.5t37.5 90.5v390q-1 13 -10 22t-22 9v0z" />
    <glyph glyph-name="bqpg" unicode="&#xe694;" 
d="M896 896h-64q-13 0 -22.5 -9.5t-9.5 -22.5t9.5 -22.5t22.5 -9.5h64q27 0 45.5 -18.5t18.5 -45.5v-768q0 -27 -18.5 -45.5t-45.5 -18.5h-768q-27 0 -45.5 18.5t-18.5 45.5v768q0 27 18.5 45.5t45.5 18.5h64q13 0 22.5 9.5t9.5 22.5t-9.5 22.5t-22.5 9.5h-64
q-53 0 -90.5 -37.5t-37.5 -90.5v-768q0 -53 37.5 -90.5t90.5 -37.5h768q53 0 90.5 37.5t37.5 90.5v768q0 53 -37.5 90.5t-90.5 37.5zM358 832h308q13 0 22.5 9.5t9.5 22.5t-9.5 22.5t-22.5 9.5h-308q-13 0 -22.5 -9.5t-9.5 -22.5t9.5 -22.5t22.5 -9.5zM417 512q-10 9 -23 9
t-23 -9l-171 -172q-10 -10 -10 -23t9.5 -22.5t23 -9.5t22.5 9l149 150l149 -150q9 -9 22 -9t23 10l236 236q8 9 8 21q0 13 -9.5 22.5t-22.5 9.5q-12 0 -21 -8l-214 -214z" />
    <glyph glyph-name="ck" unicode="&#xe695;" horiz-adv-x="1635" 
d="M817.5 896q-133.5 0 -258 -26t-225 -73t-176.5 -110t-117 -141t-41 -161t41 -161t117 -141t176.5 -110t225 -73t258 -26t258 26t225 73t176.5 110t117 141t41 161t-41 161t-117 141t-176.5 110t-225 73t-258 26zM503 385q0 130 92 222t223 92q130 0 222 -92.5t92 -222.5
t-92 -222.5t-222 -92.5v0q-131 0 -223 92.5t-92 222.5v1v0zM102 385q0 100 83.5 189t226 147t314.5 73q-147 -29 -243.5 -143.5t-96.5 -265.5t96 -265.5t241 -142.5q-170 14 -312 71.5t-225.5 147t-83.5 189.5zM910 -24q146 29 242.5 143.5t96.5 265.5t-96 265.5t-241 142.5
q170 -15 312 -72.5t225.5 -146.5t83.5 -189t-83.5 -189.5t-226.5 -147.5t-313 -72z" />
    <glyph glyph-name="csnyr" unicode="&#xe696;" horiz-adv-x="1087" 
d="M1054 -60h-62v504q0 56 -39.5 95.5t-95.5 39.5v0h-279v154q0 14 -10 24t-24 10t-24 -10t-10 -24v-154h-279v0q-56 0 -96 -39.5t-40 -95.5v0v-504h-61q-14 0 -24 -10t-10 -24t10 -24t24 -10h1020q14 0 24 10t10 24t-10 24t-24 10zM924 -60h-761v143h761v-143zM924 149
h-761v295q0 28 20 47.5t48 19.5v0h626q28 0 47.5 -19.5t19.5 -47.5v-295zM510 862q0 -14 10 -24t24 -10t24 10t10 24t-10 24t-24 10t-24 -10t-10 -24z" />
    <glyph glyph-name="bw" unicode="&#xe697;" 
d="M388 605l-62 -72h226l82 72h-246zM512 896q-139 0 -257 -68.5t-186.5 -186.5t-68.5 -257t68.5 -257t186.5 -186.5t257 -68.5t257 68.5t186.5 186.5t68.5 257t-68.5 257t-186.5 186.5t-257 68.5zM347 390q0 -99 -19 -170t-63 -127q-3 3 -11.5 11t-16 15.5t-13.5 14.5
q82 109 82 248v8v133l-62 -41l-20 41l164 163h61q-20 -36 -30 -51h276v-30l-82 -72h184v-31h-450v-112zM808 185q-8 -29 -30.5 -40t-62.5 -11h-204q-40 0 -61 21t-21 60v195h286q3 -57 0 -92q-2 -42 -21 -62.5t-60 -19.5h-62l-10 31q4 -1 12 -1.5t27 0.5t34 4.5t27.5 13
t12.5 24.5v71h-205v-164q0 -22 10 -36.5t31 -14.5h184q54 0 61 31q3 9 3 27t-2 31l-1 14l52 -21q5 -43 0 -61z" />
    <glyph glyph-name="cw" unicode="&#xe698;" 
d="M862 500h-798v364q0 13 -9.5 22.5t-22.5 9.5t-22.5 -9.5t-9.5 -22.5v-960q0 -13 9.5 -22.5t22.5 -9.5t22.5 9.5t9.5 22.5v212h896v-212q0 -13 9.5 -22.5t22.5 -9.5t22.5 9.5t9.5 22.5v436v0q0 66 -47 113t-113 47h-2v0zM960 298v-118h-896v256h798h2q40 0 68 -28t28 -68
v0v-42z" />
    <glyph glyph-name="ej" unicode="&#xe699;" 
d="M512 896q-104 0 -198.5 -40.5t-162.5 -108.5t-108.5 -162.5t-40.5 -198t40.5 -198t108.5 -163t162.5 -109t198.5 -40.5t198.5 40.5t162.5 109t108.5 163t40.5 198t-40.5 198t-108.5 162.5t-162.5 108.5t-198.5 40.5v0zM472 581h-45v-367h45v-51h-151v51h45v367h-45v51
h151v-51zM717 581h-46v-367h46v-51h-151v51h45v367h-45v51h151v-51z" />
    <glyph glyph-name="fd" unicode="&#xe69a;" 
d="M512 896q-139 0 -257 -68.5t-186.5 -186.5t-68.5 -257t68.5 -257t186.5 -186.5t257 -68.5t257 68.5t186.5 186.5t68.5 257t-68.5 257t-186.5 186.5t-257 68.5zM512 -64q-122 0 -225 60t-163 163t-60 225t60 225t163 163t225 60t225 -60t163 -163t60 -225t-60 -225
t-163 -163t-225 -60zM731 416h-187v187q0 13 -9.5 22.5t-22.5 9.5t-22.5 -9.5t-9.5 -22.5v-187h-187q-13 0 -22.5 -9.5t-9.5 -22.5t9.5 -22.5t22.5 -9.5h187v-187q0 -13 9.5 -22.5t22.5 -9.5t22.5 9.5t9.5 22.5v187h187q13 0 22.5 9.5t9.5 22.5t-9.5 22.5t-22.5 9.5z" />
    <glyph glyph-name="dh" unicode="&#xe69b;" horiz-adv-x="1034" 
d="M760 -126q-34 0 -68 4l11 55q88 -10 157 9t98 60q14 31 14 66q0 55 -33 98q-18 23 -37.5 34t-43.5 10.5t-46 -7t-59 -20.5q-36 -14 -56 -20.5t-54 -13t-65 0t-61 24.5q-80 32 -138.5 93t-86.5 140l-6 37q-1 12 -1 22q0 39 14 75q31 77 39 130.5t0 77t-27 42.5
q-14 13 -35.5 24.5t-49 19.5t-58.5 0.5t-57 -32.5q-34 -33 -45.5 -100.5t-1 -135t35.5 -108.5q25 -39 62 -90.5t93.5 -118t114 -123t123.5 -101t122 -57.5l-12 -54q-52 11 -110.5 46t-109.5 80t-102.5 99t-90.5 102.5t-71.5 93t-47.5 67t-18 27.5q-33 51 -47 129t1 159
t63 127q35 34 77.5 45.5t80.5 2.5t68.5 -25.5t51.5 -37.5q48 -48 48 -121.5t-48 -189.5q-10 -26 -10 -55q0 -39 18 -74q31 -65 86 -112t125 -66l-25 10q23 -14 45.5 -18.5t50 1t44.5 10.5t51 18l36 13.5t35 11t37.5 7.5t36 -0.5t38 -9.5t36 -22.5t36.5 -35.5
q78 -133 18 -223q-40 -48 -96 -75t-120 -27q-16 0 -31 2h1z" />
    <glyph glyph-name="fx" unicode="&#xe69c;" horiz-adv-x="1025" 
d="M869 182q-49 0 -88.5 -28t-55.5 -73l-419 263q4 16 4 34.5t-4 35.5l420 263q18 -41 56.5 -66.5t85.5 -25.5q64 0 109.5 45.5t45.5 110t-45.5 110t-109.5 45.5q-65 0 -110.5 -45.5t-45.5 -109.5l-428 -268q-22 31 -55.5 49t-73.5 18q-64 0 -109.5 -45.5t-45.5 -110
t45.5 -110t109.5 -45.5q75 0 121 58l440 -277q7 -58 51 -97.5t103 -39.5q64 0 109.5 45.5t45.5 109.5t-45.5 109.5t-109.5 45.5h-1v-1zM869 831q38 0 65 -26.5t27 -64.5t-27 -64.5t-64.5 -26.5t-64.5 26.5t-27 64.5t27 64.5t64 26.5v0zM157 292h-1q-38 0 -64.5 27t-26.5 65
t26.5 64.5t64.5 26.5t65 -26.5t27 -64.5v0q0 -38 -26.5 -64.5t-64.5 -27.5v0zM869.5 -64q-37.5 0 -64.5 27t-27 64.5t27 64.5t64.5 27t64.5 -27t27 -64.5t-27 -64.5t-64.5 -27z" />
    <glyph glyph-name="gb" unicode="&#xe69d;" horiz-adv-x="1027" 
d="M992 893q-13 0 -22 -10l-456 -455l-457 455q-9 13 -25 13q-13 0 -22.5 -9.5t-9.5 -22.5q0 -16 13 -25l455 -457l-455 -455q-10 -10 -10 -23t9.5 -22.5t23 -9.5t22.5 9l456 457l455 -456q10 -9 23 -9t22.5 9t9.5 22.5t-9 22.5l-457 455l457 457q9 9 9 22t-9.5 22.5
t-22.5 9.5v0z" />
    <glyph glyph-name="dz" unicode="&#xe69e;" 
d="M512 896q-117 0 -216 -58t-156.5 -157t-57.5 -216q0 -155 99 -274l7 -7l298 -298q9 -10 23 -10v0v0q14 0 23 10l307 307q97 118 97 272q0 116 -56.5 214.5t-154 156.5t-212.5 60h-1zM786 224l-274 -274l-96 96l-142 146l-32 32q-92 103 -92 242q0 99 49 183.5t133 133
t183.5 48.5t183.5 -48.5t133 -133t49 -183.5q0 -139 -92 -242h-3zM512 596q-70 0 -119.5 -49.5t-49.5 -119.5t49.5 -120t120 -50t120 50t49.5 120t-49.5 119.5t-120.5 49.5v0zM512 320v0q-44 0 -74.5 30.5t-30.5 74t30.5 74.5t74.5 31q43 0 73.5 -30t31.5 -73v-2
q0 -43 -30.5 -74t-74.5 -31v0z" />
    <glyph glyph-name="gm" unicode="&#xe69f;" 
d="M326 386h164v103h-164v-103zM388 468l41 -41l-21 -20l-41 41zM326 243h144v102h-144v-102zM388 325l41 -41l-21 -21l-41 41zM634 530l60 -223l42 223h-102zM512 896q-139 0 -257 -68.5t-186.5 -186.5t-68.5 -257t68.5 -257t186.5 -186.5t257 -68.5t257 68.5t186.5 186.5
t68.5 257t-68.5 257t-186.5 186.5t-257 68.5zM511 202q-2 -47 -23 -74.5t-59 -27.5h-62l-20 40h82q36 0 41 62h-185v143h-61v41h61v123l-20 -20l-41 20l102 184l41 -20l-30 -61h215v-41h-236l-10 -41h225v-144h41v-41h-41l-10 -102h51v-41h-61zM797 79l-102 133l-143 -133
l-21 51l133 133l-51 185l-41 -41l-20 41l82 245l41 -20l-21 -102h164v-41h-21l-71 -267l112 -133z" />
    <glyph glyph-name="gmjl" unicode="&#xe6a0;" 
d="M820 424v0q-13 0 -22 -9.5t-10 -22.5v-392q0 -27 -18.5 -45.5t-45.5 -18.5h-596q-27 0 -45.5 18.5t-18.5 45.5v678q0 26 18.5 45t45.5 19h384q13 0 22.5 9.5t9.5 22.5t-9.5 22.5t-22.5 9.5h-384q-53 0 -90.5 -37.5t-37.5 -90.5v-678q0 -53 37.5 -90.5t90.5 -37.5h596
q53 0 90.5 37.5t37.5 90.5v392q0 13 -9 22.5t-23 9.5v0zM1014 887q-9 9 -22 9t-22 -9l-405 -405q-11 -10 -11 -24q0 -13 9 -22.5t22 -9.5q15 0 24 12l405 404q10 9 10 22.5t-10 22.5zM634 340h-416q-13 0 -22.5 -9.5t-9.5 -22.5t9.5 -22.5t22.5 -9.5h416q13 0 22.5 9.5
t9.5 22.5t-9.5 22.5t-22.5 9.5zM634 165h-416q-13 0 -22.5 -9.5t-9.5 -22.5t9.5 -22.5t22.5 -9.5h416q13 0 22.5 9.5t9.5 22.5t-9.5 22.5t-22.5 9.5z" />
    <glyph glyph-name="hl" unicode="&#xe6a1;" horiz-adv-x="1103" 
d="M790 896q-71 0 -134 -34q-90 -49 -134 -142l26 45l-6 6q-61 85 -160 116l-36 6q-22 3 -41 3q-128 -6 -216.5 -99t-88.5 -222v-14q1 -99 51 -185l-2 1q8 -13 23 -13q12 0 21 8.5t9 20.5v0q-1 9 -6 16q-39 88 -42 189l2 -25v1v1q0 104 72.5 180t176.5 81q76 -2 137.5 -45.5
t88.5 -111.5v-5q0 -6 4.5 -10.5t10.5 -4.5t10 4.5t4 10.5v4q28 70 89.5 113t137.5 45q104 -5 176 -81t72 -180v-14q-5 -124 -83 -221q-29 -46 -81 -104t-105 -107t-103 -92t-81.5 -67.5t-33.5 -25.5v-6h-4q-26 20 -63 51h-2l-15 14q-8 6 -19 6q-12 0 -21 -8.5t-9 -21
t9 -21.5l16 -14q67 -56 74 -60q15 -12 35.5 -12t36.5 13t38 30t81 68t108.5 98t105.5 109.5t89 114.5q86 115 87 262l1 8q0 129 -89 222t-216 99h-1z" />
    <glyph glyph-name="jy" unicode="&#xe6a2;" 
d="M896 896h-768q-53 0 -90.5 -37.5t-37.5 -90.5v-768q0 -53 37.5 -90.5t90.5 -37.5h768q53 0 90.5 37.5t37.5 90.5v768q0 53 -37.5 90.5t-90.5 37.5zM960 0q0 -27 -18.5 -45.5t-45.5 -18.5h-768q-27 0 -45.5 18.5t-18.5 45.5v768q0 27 18.5 45.5t45.5 18.5h768
q27 0 45.5 -18.5t18.5 -45.5v-768zM747 416.5q0 103.5 -73.5 177t-177 73.5t-177 -73.5t-73.5 -177t73.5 -177t177 -73.5t177 73.5t73.5 177zM497 236q-75 0 -128 53t-53 128t53 128t128 53t128 -53t53 -128t-53 -128t-128 -53zM726 228q-10 10 -23 10t-22.5 -9.5t-9.5 -23
t9 -22.5l98 -97q9 -10 22.5 -10t22.5 9.5t9 23t-9 22.5z" />
    <glyph glyph-name="jc" unicode="&#xe6a3;" 
d="M897 896h-768q-53 0 -90.5 -37.5t-37.5 -90.5v-64q0 -13 9 -22.5t22.5 -9.5t23 9.5t9.5 22.5v64q0 27 18.5 45.5t45.5 18.5h768q26 0 45 -18.5t19 -45.5v-768q0 -27 -19 -45.5t-45 -18.5h-768q-27 0 -45.5 18.5t-18.5 45.5v299l64 149l176 -266q6 -7 15 -9l1 2h6h7
q9 0 17 6q9 6 12 17l170 378l172 -256q12 -14 31 -15h101q13 0 22.5 9t9.5 22.5t-9.5 23t-22.5 9.5h-88l-192 290q-10 14 -27 14q-9 0 -17 -6q-11 -7 -13 -19l1 -1l-169 -384l-182 267l-5 4l-5 4h-34l-4 -5l-4 -5l-97 -208q-1 -3 -1 -6.5t1 -7.5v-306q0 -53 37.5 -90.5
t90.5 -37.5h768q53 0 90.5 37.5t37.5 90.5v768q0 53 -37.5 90.5t-90.5 37.5z" />
    <glyph glyph-name="hljb" unicode="&#xe6a4;" horiz-adv-x="1103" 
d="M424 166v0q14 0 24 10t10 24.5t-10 24.5t-24 10v0h-123v123q0 14 -10 24t-24 10t-24 -10t-10 -24v-123h-123v0q-14 0 -24 -10t-10 -24.5t10 -24.5t24 -10v0h123v-123q0 -14 10 -24t24 -10t24 10t10 24v123h123zM790 896q-71 0 -134 -34q-90 -49 -134 -142l26 45l-6 6
q-61 85 -160 116l-36 6q-22 3 -41 3q-128 -6 -216.5 -99t-88.5 -222v-14q1 -99 51 -185l-2 1q8 -13 23 -13q12 0 21 8.5t9 20.5v0q-1 9 -6 16q-39 88 -42 189l2 -25v1v1q0 104 72.5 180t176.5 81q76 -2 137.5 -45.5t88.5 -111.5v-5q0 -6 4.5 -10.5t10.5 -4.5t10 4.5t4 10.5
v4q28 70 89.5 113t137.5 45q104 -5 176 -81t72 -180v-14q-5 -124 -83 -221q-29 -46 -81 -104t-105 -107t-103 -92t-81.5 -67.5t-33.5 -25.5v-6h-4q-26 20 -63 51h-2l-15 14q-8 6 -19 6q-12 0 -21 -8.5t-9 -21t9 -21.5l16 -14q67 -56 74 -60q15 -12 35.5 -12t36.5 13t38 30
t81 68t108.5 98t105.5 109.5t89 114.5q86 115 87 262l1 8q0 129 -89 222t-216 99h-1z" />
    <glyph glyph-name="ljt" unicode="&#xe6a5;" horiz-adv-x="1092" 
d="M405 828h282q15 0 25 10t10 24t-10 24t-25 10h-282q-14 0 -24 -10t-10 -24t10 -24t24 -10zM405.5 87q14.5 0 24.5 10t10 24v342v0q0 14 -10 24t-24.5 10t-24.5 -10t-10 -24v0v-342q0 -14 10 -24t24.5 -10zM687 87q14 0 24 10t10 24v342v0q0 14 -10 24t-24 10t-24 -10
t-10 -24v0v-342q0 -14 10 -24t24 -10v0zM1058 754h-1024q-14 0 -24 -10t-10 -24t10 -24t24 -10h103v-677q0 -57 40 -97t96 -40v0h546q57 0 97 40t40 97v677h102q14 0 24 10t10 24t-10 24t-24 10zM887 9q0 -29 -20 -49t-48 -20v0h-546q-28 0 -48 20t-20 49v677h682v-677z" />
    <glyph glyph-name="kp" unicode="&#xe6a6;" horiz-adv-x="1305" 
d="M1142 896h-979q-67 0 -115 -48t-48 -115v-698q0 -67 48 -115t115 -48h979q68 0 115.5 48t47.5 115v0v698q0 67 -47.5 115t-115.5 48v0zM245 546q0 17 12 29t29 12h727v0q17 0 29 -12t12 -29t-12 -29t-29 -12v0h-724h-3q-17 0 -29 12t-12 29v0zM878 90q-17 0 -29 12
t-12 29t12 28.5t29 11.5t29 -11.5t12 -28.5v0q0 -17 -11 -28.5t-27 -12.5h-3zM1018 90v0q-17 0 -29 12t-12 29t12 28.5t29 11.5t29 -11.5t12 -28.5v0q0 -17 -11 -28.5t-27 -12.5h-3z" />
    <glyph glyph-name="lb" unicode="&#xe6a7;" horiz-adv-x="1305" 
d="M67 762h1171q27 0 46.5 19.5t19.5 47.5t-19.5 47.5t-46.5 19.5h-1171q-28 0 -47.5 -19.5t-19.5 -47.5t19.5 -47.5t47.5 -19.5zM1238 451h-1171q-28 0 -47.5 -19.5t-19.5 -47.5t19.5 -47.5t47.5 -19.5h1171q27 0 46.5 19.5t19.5 47.5t-19.5 47.5t-46.5 19.5zM1238 6h-1171
q-28 0 -47.5 -19.5t-19.5 -47.5t19.5 -47.5t47.5 -19.5h1171q27 0 46.5 19.5t19.5 47.5t-19.5 47.5t-46.5 19.5z" />
    <glyph glyph-name="qs" unicode="&#xe6a8;" 
d="M32 896q-13 0 -22.5 -9.5t-9.5 -22.5v-960q0 -13 9.5 -22.5t22.5 -9.5h960q13 0 22.5 9.5t9.5 22.5t-9.5 22.5t-22.5 9.5h-928v928q0 13 -9.5 22.5t-22.5 9.5zM793 615q-13 0 -22.5 -9.5t-9.5 -22.5t9.5 -22.5t22.5 -9.5l80 -4l-205 -204l-192 192v4q-10 9 -23.5 9
t-22.5 -9l-258 -263q-10 -10 -10 -23t9.5 -22.5t23 -9.5t22.5 9l235 237l192 -192q10 -10 23.5 -10t22.5 10l228 228l6 -82q1 -12 10.5 -20.5t21.5 -8.5v0q13 1 21.5 10t8.5 22v2l-9 150v2v2v2.5v2.5v10l-17 7h-14l-152 7z" />
    <glyph glyph-name="mzhm" unicode="&#xe6a9;" 
d="M896 896h-64q-13 0 -22.5 -9.5t-9.5 -22.5t9.5 -22.5t22.5 -9.5h64q27 0 45.5 -18.5t18.5 -45.5v-768q0 -27 -18.5 -45.5t-45.5 -18.5h-768q-27 0 -45.5 18.5t-18.5 45.5v768q0 27 18.5 45.5t45.5 18.5h64q13 0 22.5 9.5t9.5 22.5t-9.5 22.5t-22.5 9.5h-64
q-53 0 -90.5 -37.5t-37.5 -90.5v-768q0 -53 37.5 -90.5t90.5 -37.5h768q53 0 90.5 37.5t37.5 90.5v768q0 53 -37.5 90.5t-90.5 37.5zM358 832h308q13 0 22.5 9.5t9.5 22.5t-9.5 22.5t-22.5 9.5h-308q-13 0 -22.5 -9.5t-9.5 -22.5t9.5 -22.5t22.5 -9.5zM167 374q-1 -9 -1 -20
q0 -86 42 -160q17 -29 46.5 -46t63.5 -17h4h5q36 0 67 17t49 47q44 76 44 166q0 12 -1 24q0 247 -153 247h-7q-36 0 -66.5 -17t-49.5 -46q-44 -79 -44 -172q0 -12 1 -24v1zM329 583q95 0 94 -203t-96 -196q-98 0 -98 192q1 207 100 207zM842 521v2q0 49 -38 79
q-39 32 -90 32h-6h-6q-55 0 -98 -34q-40 -32 -40 -84v-4q2 -40 26 -71.5t61 -43.5q-45 -13 -74 -50t-30 -85v-3q0 -53 40 -88q43 -35 98 -35h7q5 -1 11 -1q62 0 111 37q43 35 43 91v5q-1 46 -31 82t-75 45q40 15 65 49t26 77v0zM796 265v-1q0 -33 -26 -55q-27 -22 -62 -22
h-2h-5q-36 0 -64 22q-26 22 -26 56v2q0 67 90 104q95 -39 95 -109v3zM704 422q-78 32 -78 90v1q0 30 23 49q23 22 55 22h4q29 0 51 -19q21 -19 21 -47v-4q0 -60 -76 -92z" />
    <glyph glyph-name="sj" unicode="&#xe6aa;" 
d="M512 896q-104 0 -198.5 -40.5t-162.5 -108.5t-108.5 -162.5t-40.5 -198t40.5 -198t108.5 -163t162.5 -109t198.5 -40.5t198.5 40.5t162.5 109t108.5 163t40.5 198t-40.5 198t-108.5 162.5t-162.5 108.5t-198.5 40.5v0zM413 581h-46v-367h46v-51h-151v51h45v367h-45v51
h151v-51zM595 581h-45v-367h45v-51h-151v51h45v367h-45v51h151v-51zM777 581h-45v-367h45v-51h-151v51h45v367h-45v51h151v-51z" />
    <glyph glyph-name="rysj" unicode="&#xe6ab;" horiz-adv-x="1091" 
d="M357 657q14 0 24 10t10 24v171q0 14 -10 24t-24 10t-24 -10t-10 -24v-171q0 -14 10 -24t24 -10zM735 657q14 0 24 10t10 24v171q0 14 -10 24t-24 10t-24 -10t-10 -24v-171q0 -14 10 -24t24 -10zM955 801h-84q-14 0 -23.5 -9.5t-10.5 -22.5q1 -13 10.5 -22.5t22.5 -9.5h85
q28 0 48 -20t20 -48v-660q0 -28 -20 -48t-48 -20h-819q-28 0 -48 20t-20 48v656q0 28 20 48t48 20h84v0q14 0 24 9.5t10 23.5t-10 24t-24 10v0h-84q-56 0 -96 -40t-40 -97v-654q0 -56 40 -96t96 -40h819v0q57 0 97 40t40 96v656q0 56 -40 96t-97 40zM493 733h105q14 0 24 10
t10 24t-10 24t-24 10h-105q-14 0 -24 -10t-10 -24t10 -24t24 -10zM282 435h527q14 0 24 10t10 24t-10 24t-24 10h-527q-14 0 -24 -10t-10 -24t10 -24t24 -10zM809 257h-527q-14 0 -24 -10t-10 -24t10 -24t24 -10h527q14 0 24 10t10 24t-10 24t-24 10z" />
    <glyph glyph-name="sfz" unicode="&#xe6ac;" 
d="M896 896h-768q-53 0 -90.5 -37.5t-37.5 -90.5v-768q0 -53 37.5 -90.5t90.5 -37.5h768q53 0 90.5 37.5t37.5 90.5v768q0 53 -37.5 90.5t-90.5 37.5zM960 0q0 -27 -18.5 -45.5t-45.5 -18.5h-768q-27 0 -45.5 18.5t-18.5 45.5v768q0 27 18.5 45.5t45.5 18.5h768
q27 0 45.5 -18.5t18.5 -45.5v-768zM363 448q57 0 98 40.5t41 98t-41 98.5t-98 41t-98 -40.5t-41 -97.5v-1q0 -58 40.5 -98.5t98.5 -40.5v0zM363 662q31 0 53 -22t22 -53t-22 -53t-53 -22t-53 22t-22 53v1q0 31 22 52.5t53 21.5v0zM768 331h-512q-13 0 -22.5 -9.5t-9.5 -22.5
t9.5 -22.5t22.5 -9.5h512q13 0 22.5 9.5t9.5 22.5t-9.5 22.5t-22.5 9.5zM768 149h-512q-13 0 -22.5 -9.5t-9.5 -22.5t9.5 -22.5t22.5 -9.5h512q13 0 22.5 9.5t9.5 22.5t-9.5 22.5t-22.5 9.5z" />
    <glyph glyph-name="sj1" unicode="&#xe6ad;" 
d="M512 896q-139 0 -257 -68.5t-186.5 -186.5t-68.5 -257t68.5 -257t186.5 -186.5t257 -68.5t257 68.5t186.5 186.5t68.5 257t-68.5 257t-186.5 186.5t-257 68.5zM512 -64q-122 0 -225 60t-163 163t-60 225t60 225t163 163t225 60t225 -60t163 -163t60 -225t-60 -225
t-163 -163t-225 -60zM794 416h-250v241q0 13 -9.5 22.5t-22.5 9.5t-22.5 -9.5t-9.5 -22.5v-273q0 -13 9.5 -22.5t22.5 -9.5h282q13 0 22.5 9.5t9.5 22.5t-9.5 22.5t-22.5 9.5z" />
    <glyph glyph-name="sjdy" unicode="&#xe6ae;" 
d="M896 896h-768q-53 0 -90.5 -37.5t-37.5 -90.5v-768q0 -53 37.5 -90.5t90.5 -37.5h768q53 0 90.5 37.5t37.5 90.5v768q0 53 -37.5 90.5t-90.5 37.5zM960 0q0 -27 -18.5 -45.5t-45.5 -18.5h-768q-27 0 -45.5 18.5t-18.5 45.5v768q0 27 18.5 45.5t45.5 18.5h768
q27 0 45.5 -18.5t18.5 -45.5v-768zM392 576h226q13 0 22.5 9.5t9.5 22.5t-9.5 22.5t-22.5 9.5h-304q-32 0 -32 -32v-307q0 -13 9.5 -22.5t22.5 -9.5t22.5 9.5t9.5 22.5v227l389 -388q9 -10 22.5 -10t23 9.5t9.5 23t-10 22.5z" />
    <glyph glyph-name="ss" unicode="&#xe6af;" horiz-adv-x="1210" 
d="M503 896v0q-102 0 -195 -40t-160.5 -107.5t-107.5 -160.5t-40 -195.5t40 -195.5t107.5 -160.5t160.5 -107.5t195.5 -40t195.5 40t160.5 107.5t107.5 160.5t40 195.5t-40 195.5t-107.5 160.5t-160.5 107.5t-196 40zM503 -36q-116 0 -214.5 57t-155.5 156t-57 215t57 214.5
t155.5 156t215 57.5t215 -57.5t155.5 -156t57 -214.5t-57 -214.5t-155.5 -156t-214.5 -57.5h-1zM1196 -61l-160 133q-11 9 -25 9q-15 0 -26 -11t-11 -27q0 -18 13 -29l161 -133q10 -9 24 -9q15 0 26.5 11t11.5 27q0 18 -14 29v0z" />
    <glyph glyph-name="tj" unicode="&#xe6b0;" 
d="M951 457h-366v366q0 30 -21.5 51.5t-51.5 21.5t-51.5 -21.5t-21.5 -51.5v-366h-366q-30 0 -51.5 -21.5t-21.5 -51.5t21.5 -51.5t51.5 -21.5h366v-366q0 -30 21.5 -51.5t51.5 -21.5t51.5 21.5t21.5 51.5v366h366q30 0 51.5 21.5t21.5 51.5t-21.5 51.5t-51.5 21.5z" />
    <glyph glyph-name="xx" unicode="&#xe6b1;" 
d="M793 189q-10 11 -25 11t-25 -11l-196 -195v866q0 15 -10 25.5t-25 10.5t-25.5 -10.5t-10.5 -25.5v-866l-195 195q-11 11 -25.5 11t-25 -10.5t-10.5 -25.5t10 -25l256 -256l12 -8q6 -3 13 -3t14 3l11 8l256 256q11 10 11 26q0 14 -10 24v0z" />
    <glyph glyph-name="xyxz" unicode="&#xe6b2;" 
d="M512 896q-142 0 -261 -71.5t-186 -190.5l-1 153q0 13 -9.5 22.5t-22.5 9.5t-22.5 -9.5t-9.5 -22.5v-240v-3q0 -13 9.5 -22.5t22.5 -9.5v0h240q13 0 22.5 9.5t9.5 22.5t-9.5 22.5t-22.5 9.5h-162q56 115 164 184t239 69q91 0 174 -35.5t143 -95.5t95.5 -143t35.5 -174
t-35.5 -174t-95.5 -143t-143 -95.5t-174 -35.5q-123 0 -227 61.5t-163 164.5q-7 28 -33 28q-13 0 -22.5 -9.5t-9.5 -23.5v-8q1 -8 5 -15l1 1q68 -119 186.5 -189.5t259.5 -70.5q104 0 198.5 40.5t163.5 109t109.5 163.5t40.5 199t-40.5 198.5t-108.5 163t-162.5 109
t-198.5 41.5v0z" />
    <glyph glyph-name="xs" unicode="&#xe6b3;" 
d="M792 627l-255 256l-13 10q-6 3 -13 3t-14 -3l-11 -10l-255 -256q-11 -10 -11 -25t10.5 -25t25.5 -10t25 10l195 195v-865q0 -14 10 -24.5t25 -10.5t25 10.5t10 24.5v865l196 -195q10 -10 24.5 -10t25 10t10.5 25t-10 25z" />
    <glyph glyph-name="sx" unicode="&#xe6b4;" 
d="M512 896q-139 0 -257 -68.5t-186.5 -186.5t-68.5 -257t68.5 -257t186.5 -186.5t257 -68.5t257 68.5t186.5 186.5t68.5 257t-68.5 257t-186.5 186.5t-257 68.5zM512 -64q-122 0 -225 60t-163 163t-60 225t60 225t163 163t225 60t225 -60t163 -163t60 -225t-60 -225
t-163 -163t-225 -60zM731 416h-438q-13 0 -22.5 -9.5t-9.5 -22.5t9.5 -22.5t22.5 -9.5h438q13 0 22.5 9.5t9.5 22.5t-9.5 22.5t-22.5 9.5z" />
    <glyph glyph-name="qj" unicode="&#xe6b5;" 
d="M956 450v1q0 91 -35 173t-94.5 141.5t-142 95t-173 35.5t-173 -35.5t-142 -95t-94.5 -141.5t-35 -173q0 -127 66 -233.5t176 -162.5l-84 -134q-5 -8 -5 -17q0 -13 9 -22.5t22 -9.5h520v0q13 0 22.5 9.5t9.5 22.5q0 10 -6 18l-87 131q112 57 179 163t67 234v0zM712 -65
h-402l64 93q65 -22 139 -22t143 23zM511.5 68q-103.5 0 -191.5 51t-139 139t-51 191.5t51 191.5t139 139t191.5 51t191.5 -51t139 -139t51 -191.5t-51 -191.5t-139 -139t-191.5 -51zM511 669q-90 0 -154 -64t-64 -154.5t64 -154.5t154.5 -64t154.5 63.5t64 154.5v0
q0 91 -64 155t-155 64v0zM511.5 295q-64.5 0 -110 45t-45.5 109.5t45.5 110t110 45.5t110 -45.5t45.5 -110t-45.5 -109.5t-110 -45z" />
    <glyph glyph-name="qxcg" unicode="&#xe6b6;" 
d="M605 154l-300 191q5 17 5 35t-5 35l419 263q19 -42 57 -67t85 -25q64 0 109.5 45.5t45.5 109.5t-45.5 109.5t-109.5 45.5t-109.5 -45t-46.5 -109l-427 -271q-22 31 -55.5 49t-72.5 18q-64 0 -109.5 -45.5t-45.5 -109.5t45.5 -109.5t109.5 -45.5q74 0 121 58l294 -185
q8 -5 17 -5q13 0 22.5 9.5t9.5 22.5q0 18 -15 27zM867 829q38 0 65 -26.5t27 -64.5t-27 -64.5t-64.5 -26.5t-64.5 26.5t-27 64.5t27 64.5t64 26.5v0zM157 291h-1q-38 0 -64.5 27t-26.5 64.5t26.5 64.5t64.5 27t64.5 -27t26.5 -65v0q0 -37 -26.5 -64t-63.5 -27v0zM1009 197
q-9 9 -22.5 9t-22.5 -9l-112 -113l-113 113q-9 9 -22.5 9t-22.5 -9.5t-9 -22.5t9 -23l112 -112l-112 -112q-9 -10 -9 -23t9 -22.5t22.5 -9.5t22.5 9l113 113l112 -113q9 -9 22.5 -9t23 9.5t9.5 22.5t-10 23l-114 112l112 112q11 10 11 24q0 12 -9 22v0z" />
    <glyph glyph-name="xyxz1" unicode="&#xe6b7;" 
d="M992 819q-13 0 -22.5 -9.5t-9.5 -22.5v-156q-68 121 -187 193t-261 72q-104 0 -199 -40.5t-163.5 -109t-109 -163.5t-40.5 -199t40.5 -199t109 -163.5t163.5 -109t199 -40.5q141 0 260.5 71.5t186.5 190.5q5 10 5 18q1 2 1 7q0 13 -9.5 22.5t-23.5 9.5q-11 0 -20 -7
t-12 -18q-59 -105 -163 -167t-227 -62q-91 0 -174 35.5t-143 95.5t-95.5 143t-35.5 174t35.5 174t95.5 143t143 95.5t174 35.5q131 0 239.5 -70t163.5 -184l-161 -3q-13 0 -22.5 -9.5t-9.5 -22.5t9.5 -22.5t22.5 -9.5h240q13 0 22.5 9.5t9.5 22.5v243q0 13 -9.5 22.5
t-22.5 9.5z" />
    <glyph glyph-name="yj" unicode="&#xe6b8;" 
d="M512 896q-104 0 -198.5 -40.5t-162.5 -108.5t-108.5 -162.5t-40.5 -198t40.5 -198t108.5 -163t162.5 -109t198.5 -40.5t198.5 40.5t162.5 109t108.5 163t40.5 198t-40.5 198t-108.5 162.5t-162.5 108.5t-198.5 40.5v0zM592 581h-46v-367h46v-51h-151v51h45v367h-45v51
h151v-51z" />
    <glyph glyph-name="yy" unicode="&#xe6b9;" horiz-adv-x="1027" 
d="M996 -64h-103v832q0 53 -37.5 90.5t-90.5 37.5h-503q-53 0 -90.5 -37.5t-37.5 -90.5v-832h-102q-13 0 -22.5 -9.5t-9.5 -22.5t9.5 -22.5t22.5 -9.5h964q13 0 22.5 9.5t9.5 22.5t-9.5 22.5t-22.5 9.5zM198 -64v832q0 27 19 45.5t45 18.5h503q27 0 45.5 -18.5t18.5 -45.5
v-832h-631zM621 580h-75v75q0 13 -9.5 22.5t-22.5 9.5t-22.5 -9.5t-9.5 -22.5v-75h-75q-13 0 -22.5 -9.5t-9.5 -22.5t9.5 -22.5t22.5 -9.5h75v-75q0 -13 9.5 -22.5t22.5 -9.5t22.5 9.5t9.5 22.5v75h75q13 0 22.5 9.5t9.5 22.5t-9.5 22.5t-22.5 9.5z" />
    <glyph glyph-name="yz" unicode="&#xe6ba;" horiz-adv-x="1025" 
d="M898 896h-770q-53 0 -90.5 -37.5t-37.5 -90.5v-605q0 -53 37.5 -90.5t90.5 -37.5h371l154 -153q9 -10 22 -10h5q14 0 23 10l153 153h42v0q53 0 90.5 37.5t37.5 90.5v605q0 53 -37.5 90.5t-90.5 37.5zM962 163v-1q0 -23 -14.5 -40.5t-35.5 -22.5h-7.5h-7.5h-67l-152 -152
l-152 152h-398v0q-26 0 -45 19t-19 45v605q0 26 19 45t45 19v0h770v0q26 0 45 -19t19 -45v0v-605zM732 596h-438q-14 0 -23 -9.5t-9 -22.5t9 -22.5t23 -9.5h438v0q13 0 22.5 9.5t9.5 22.5t-9.5 22.5t-22.5 9.5v0v0zM732 404h-438q-14 0 -23 -9.5t-9 -23t9 -23t23 -9.5h438
q13 0 22.5 9.5t9.5 23t-9.5 23t-22.5 9.5v0z" />
    <glyph glyph-name="zzys" unicode="&#xe6bb;" 
d="M410 163h-43v44q0 14 -9.5 23t-22.5 9t-22.5 -9t-9.5 -23v-44h-46q-13 0 -22.5 -9t-9.5 -22.5t9.5 -22.5t22.5 -9h44v-44q0 -13 9.5 -22.5t22.5 -9.5t22.5 9.5t9.5 22.5v44h44q13 0 22 9t9 22.5t-9 22.5t-22 9h1zM664 398q56 38 88 97.5t32 128.5q0 112 -80 192
t-192.5 80t-192.5 -80t-80 -192q0 -69 32 -128.5t86 -96.5q-156 -38 -255 -139t-99 -229q0 -38 43 -69t116 -50.5t162.5 -29.5t187 -10t187.5 10t162.5 29.5t116 50.5t43.5 69q0 128 -100 229t-257 138zM303 623v1q0 87 61 148t147.5 61t147.5 -61t61 -148q0 -84 -58 -144.5
t-141 -63.5l-18 -1q-84 4 -142 64t-58 144v0zM511.5 -64q-88.5 0 -165 7.5t-126.5 19t-86 25t-52 25t-16 18.5q0 86 58.5 159.5t159 116t219.5 42.5h17q119 -1 219.5 -44.5t159 -116t58.5 -157.5q0 -7 -16 -18.5t-52 -25t-85.5 -25t-126.5 -19t-165.5 -7.5z" />
    <glyph glyph-name="zb" unicode="&#xe6bc;" horiz-adv-x="1089" 
d="M1055 -60h-40v820q0 57 -40 96.5t-96 39.5t-96 -39.5t-40 -96.5v-820h-63v515q0 56 -39.5 96t-96 40t-96 -40t-39.5 -96v-515h-68v265q0 56 -39.5 96t-96 40t-96 -40t-39.5 -96v-265h-36q-14 0 -24 -10t-10 -24t10 -24t24 -10h1021q14 0 24 10t10 24t-10 24t-24 10z
M273 -60h-135v265q0 28 19.5 48t48 20t48 -20t19.5 -48v-265zM612 -60h-135v515q0 28 19.5 48t48 20t48 -20t19.5 -48v-515zM951 -60h-135v820q0 28 20 48t48 20t47.5 -20t19.5 -48v-820z" />
    <glyph glyph-name="zd" unicode="&#xe6bd;" 
d="M801 362q0 13 -9.5 22.5t-22.5 9.5h-231v231q0 13 -9.5 22.5t-23 9.5t-22.5 -9.5t-9 -22.5v-231h-231q-14 0 -23 -9.5t-9 -23t9 -22.5t23 -9h231v-231q0 -14 9 -23t22.5 -9t23 9t9.5 23v231h230h1q13 0 22.5 9t9.5 23v0zM289 -64h-161q-27 0 -45.5 18.5t-18.5 45.5v161
q0 14 -9.5 23t-22.5 9t-22.5 -9t-9.5 -23v-161q0 -53 37.5 -90.5t90.5 -37.5h161q14 0 23 9.5t9 22.5t-9 22.5t-23 9.5zM32 576q13 0 22.5 9.5t9.5 22.5v160q0 27 18.5 45.5t45.5 18.5h161q14 0 23 9.5t9 22.5t-9 22.5t-23 9.5h-161q-53 0 -90.5 -37.5t-37.5 -90.5v-161
q0 -13 9.5 -22t22.5 -9v0v0zM992 192v0q-13 0 -22 -9t-10 -22v-161q0 -27 -18.5 -45.5t-45.5 -18.5h-161q-14 0 -23 -9.5t-9 -22.5t9 -22.5t23 -9.5h161q53 0 90.5 37.5t37.5 90.5v161q-1 13 -10 22t-22 9v0zM896 896h-161q-14 0 -23 -9.5t-9 -22.5t9 -22.5t23 -9.5h161
q27 0 45.5 -18.5t18.5 -45.5v-161q0 -13 9.5 -22.5t22.5 -9.5t22.5 9.5t9.5 22.5v161q0 53 -37.5 90.5t-90.5 37.5z" />
    <glyph glyph-name="zyhm" unicode="&#xe6be;" horiz-adv-x="1027" 
d="M996 -64h-103v832q0 53 -37.5 90.5t-90.5 37.5h-503q-53 0 -90.5 -37.5t-37.5 -90.5v-832h-102q-13 0 -22.5 -9.5t-9.5 -22.5t9.5 -22.5t22.5 -9.5h964q13 0 22.5 9.5t9.5 22.5t-9.5 22.5t-22.5 9.5zM198 -64v832q0 27 19 45.5t45 18.5h503q27 0 45.5 -18.5t18.5 -45.5
v-832h-631zM396 559h-3q-26 0 -48 -12.5t-35 -34.5q-30 -55 -30 -119v-16v-16q0 -60 29 -113q27 -39 75 -39h2h4q26 0 48 12.5t35 34.5q31 53 31 116v13q0 174 -108 174zM392 244q-70 0 -70 135.5t72 144.5q64 0 64 -142.5t-66 -137.5zM689 392q28 10 46 34t18 54v1
q0 34 -26 55q-27 23 -63 23h-1h-4q-38 0 -69 -24q-28 -23 -28 -59q0 -3 1 -5q0 -28 17 -50.5t43 -31.5q-32 -8 -53.5 -33.5t-22.5 -58.5v-1v-1q0 -37 28 -61q29 -25 68 -25h5q4 -1 8 -1q43 0 77 26q31 25 31 64v3q-1 33 -22 58.5t-52 32.5h-1zM602 476v2q0 21 16 34t37 13h2
h2q21 0 36 -13q14 -14 14 -33v-3q0 -41 -54 -64q-53 21 -53 64zM702 260q-19 -16 -43 -16h-4h-3q-25 0 -45 17q-18 15 -18 39v1q0 47 64 72q68 -25 68 -74v-1q0 -24 -19 -39v1z" />
    <glyph glyph-name="yycg" unicode="&#xe6bf;" horiz-adv-x="1045" 
d="M790 896q-105 -1 -179 -73l-170 -169q-10 -10 -10 -24t10 -24t24 -10v0q14 1 24 10l169 170q55 53 131 53q77 0 131.5 -54t55.5 -130v-2q0 -76 -54 -130l-184 -182q-55 -53 -131 -53q-62 0 -111 37t-67 94q-3 12 -12 19.5t-21 7.5v0h-10q-24 -7 -24 -32q0 -5 1 -9
q18 -57 57 -99q13 -27 68 -53t119 -26q102 0 176 70l187 184q74 73 74 177v0q-2 104 -76 176t-177 72h-1v0zM583 174q-14 -1 -24 -10l-171 -172q-55 -53 -131 -53h-1h-1q-76 0 -130 53q-55 54 -55 131.5t55 131.5l183 181q55 53 131 53t131 -53q33 -32 45 -75v6q4 -8 7 -37
q0 7 3 8t11 -1.5t13 -2.5h9q16 5 22 19q1 5 1 10q0 7 -2 13q-15 57 -48 103q0 -2 -10.5 6.5t-31 24t-39.5 26.5q-50 19 -111 19q-105 0 -181 -74l-183 -181q-75 -74 -75 -179t75 -179q74 -70 176 -70h1h5q104 0 178 73l171 169q10 10 10 23.5t-10 23.5q-9 12 -24 13h1z" />
  </font>
</defs>
</svg>
