<?xml version="1.0" encoding="UTF-8"?>
<svg width="14px" height="14px" viewBox="0 0 14 14" version="1.1" xmlns="http://www.w3.org/2000/svg" xmlns:xlink="http://www.w3.org/1999/xlink">
    <title>清除</title>
    <g id="页面-1" stroke="none" stroke-width="1" fill="none" fill-rule="evenodd">
        <g id="登录页-方案一" transform="translate(-1171.000000, -317.000000)" fill="#8599C0">
            <g id="Group-29-Copy" transform="translate(-690.888889, -388.625000)">
                <g id="Group-13" transform="translate(1564.888889, 582.625000)">
                    <g id="Group-12" transform="translate(40.000000, 120.000000)">
                        <g id="Group-21" transform="translate(9.068084, 0.000000)">
                            <g id="清除" transform="translate(247.931916, 3.000000)">
                                <path d="M7,0.875 C10.3827441,0.875 13.125,3.61725591 13.125,7 C13.125,10.3827441 10.3827441,13.125 7,13.125 C3.61725591,13.125 0.875,10.3827441 0.875,7 C0.875,3.61725591 3.61725591,0.875 7,0.875 Z M4.91128701,3.68349154 C4.56803221,3.41659476 4.07170503,3.4408581 3.75628157,3.75628157 C3.4408581,4.07170503 3.41659476,4.56803221 3.68349154,4.91128701 L3.75628157,4.99371843 L5.761875,7 L3.75628157,9.00628157 L3.68349154,9.08871299 C3.41659476,9.43196779 3.4408581,9.92829497 3.75628157,10.2437184 C4.07170503,10.5591419 4.56803221,10.5834052 4.91128701,10.3165085 L4.99371843,10.2437184 L7,8.238125 L9.00628157,10.2437184 L9.08871299,10.3165085 C9.43196779,10.5834052 9.92829497,10.5591419 10.2437184,10.2437184 C10.5591419,9.92829497 10.5834052,9.43196779 10.3165085,9.08871299 L10.2437184,9.00628157 L8.238125,7 L10.2437184,4.99371843 L10.3165085,4.91128701 C10.5834052,4.56803221 10.5591419,4.07170503 10.2437184,3.75628157 C9.92829497,3.4408581 9.43196779,3.41659476 9.08871299,3.68349154 L9.00628157,3.75628157 L7,5.761875 L4.99371843,3.75628157 L4.91128701,3.68349154 Z" id="错误"></path>
                            </g>
                        </g>
                    </g>
                </g>
            </g>
        </g>
    </g>
</svg>