<?xml version="1.0" encoding="UTF-8"?>
<svg width="15px" height="18px" viewBox="0 0 15 18" version="1.1" xmlns="http://www.w3.org/2000/svg" xmlns:xlink="http://www.w3.org/1999/xlink">
    <title>账户</title>
    <g id="页面-1" stroke="none" stroke-width="1" fill="none" fill-rule="evenodd">
        <g id="登录页-方案一" transform="translate(-923.000000, -315.000000)" fill="#8599C0">
            <g id="Group-29-Copy" transform="translate(-690.888889, -388.625000)">
                <g id="Group-13" transform="translate(1564.888889, 582.625000)">
                    <g id="Group-12" transform="translate(40.000000, 120.000000)">
                        <g id="Group-21" transform="translate(9.068084, 0.000000)">
                            <g id="账户" transform="translate(0.000000, 1.396304)">
                                <path d="M7.29555218,0 C10.0067682,0 12.2046431,2.19787486 12.2046431,4.90909091 C12.2046431,6.71476413 11.2297589,8.29274094 9.77761853,9.14539338 C12.2857767,10.1214544 14.1646557,12.5475839 14.5753071,15.5755232 C14.6306065,15.9832731 14.6306065,16.8289953 13.8591583,16.8303617 C10.4991685,16.836313 4.60223557,16.8680612 0.776102454,16.8582259 C-0.0370174504,16.8561357 -0.0370174504,15.9700351 0.0228046252,15.5445067 C0.447304898,12.5249365 2.31974846,10.1163943 4.8142448,9.14399605 C3.36150547,8.29299995 2.38646127,6.71491231 2.38646127,4.90909091 C2.38646127,2.19787486 4.58433614,0 7.29555218,0 Z M9.77382159,9.15107192 C8.94502699,9.53852062 8.12037701,9.73224497 7.29987168,9.73224497 C6.47936635,9.73224497 5.65471638,9.53852062 4.82592177,9.15107192 C5.93912596,10.6581561 6.76377593,11.4116983 7.29987168,11.4116983 C7.83596743,11.4116983 8.66061741,10.6581561 9.77382159,9.15107192 Z" id="形状结合"></path>
                            </g>
                        </g>
                    </g>
                </g>
            </g>
        </g>
    </g>
</svg>