<?xml version="1.0" encoding="UTF-8"?>
<svg width="16px" height="17px" viewBox="0 0 16 17" version="1.1" xmlns="http://www.w3.org/2000/svg" xmlns:xlink="http://www.w3.org/1999/xlink">
    <title>隐藏</title>
    <g id="页面-1" stroke="none" stroke-width="1" fill="none" fill-rule="evenodd">
        <g id="登录页-方案一" transform="translate(-1139.000000, -386.000000)" fill="#8599C0">
            <g id="Group-29-Copy" transform="translate(-690.888889, -388.625000)">
                <g id="Group-13" transform="translate(1564.888889, 582.625000)">
                    <g id="Group-11" transform="translate(40.000000, 190.500000)">
                        <g id="Group-15" transform="translate(9.000000, 0.000000)">
                            <g id="不可见-面形" transform="translate(216.000000, 2.000000)">
                                <path d="M14.0303301,1.96966991 C14.2965966,2.23593648 14.3208027,2.65260016 14.1029482,2.94621165 L14.0303301,3.03033009 L12.0522751,5.00804494 C12.8672405,5.61461992 13.6822058,6.40418009 14.4971711,7.37672546 L14.8028344,7.7499664 C14.9197894,7.89610064 14.9197898,8.10379276 14.8028353,8.24992743 C12.5352235,11.0833091 10.2676118,12.5 8,12.5 C7.0844971,12.5 6.16899419,12.2690823 5.25349129,11.807247 L3.03033009,14.0303301 C2.73743687,14.3232233 2.26256313,14.3232233 1.96966991,14.0303301 C1.70340335,13.7640635 1.6791973,13.3473998 1.89705176,13.0537883 L1.96966991,12.9696699 L12.9696699,1.96966991 C13.2625631,1.6767767 13.7374369,1.6767767 14.0303301,1.96966991 Z M10.5846976,6.4761292 L9.84177496,7.21901987 C9.94364655,7.45896098 10,7.72289946 10,8 C10,9.1045695 9.1045695,10 8,10 C7.7230852,10 7.45931481,9.94372207 7.21950238,9.84197975 L6.4761292,10.5846976 C6.92274086,10.8485766 7.44368702,11 8,11 C9.65685425,11 11,9.65685425 11,8 C11,7.44368702 10.8485766,6.92274086 10.5846976,6.4761292 Z M8,3.5 C8.42892328,3.5 8.85784655,3.55068704 9.28676983,3.65206111 L7.93744911,5.002 L7.82372721,5.00509269 C6.26935061,5.09515534 5.03246039,6.3686375 5.0006286,7.93796712 L2.86391873,10.0774084 C2.4194649,9.6581276 1.97501107,9.18442274 1.53055724,8.65629381 L1.19716564,8.2500336 C1.08021061,8.10389936 1.08021022,7.89620724 1.19716471,7.75007257 C3.46477647,4.91669086 5.73238824,3.5 8,3.5 Z"></path>
                            </g>
                        </g>
                    </g>
                </g>
            </g>
        </g>
    </g>
</svg>