<?xml version="1.0" encoding="UTF-8"?>
<svg width="15px" height="16px" viewBox="0 0 15 16" version="1.1" xmlns="http://www.w3.org/2000/svg" xmlns:xlink="http://www.w3.org/1999/xlink">
    <title>密码</title>
    <g id="页面-1" stroke="none" stroke-width="1" fill="none" fill-rule="evenodd">
        <g id="登录页-方案一" transform="translate(-923.000000, -386.000000)" fill="#8599C0">
            <g id="Group-29-Copy" transform="translate(-690.888889, -388.625000)">
                <g id="Group-13" transform="translate(1564.888889, 582.625000)">
                    <g id="Group-11" transform="translate(40.000000, 190.500000)">
                        <g id="Group-15" transform="translate(9.000000, 0.000000)">
                            <g id="密码" transform="translate(0.000000, 2.000000)">
                                <path d="M7.1800554,0 C9.16277295,0 10.7700831,1.60731015 10.7700831,3.5900277 C10.7700831,3.80182513 10.7517423,4.00933883 10.7165622,4.21106719 L12.3601108,4.21052632 C13.4646803,4.21052632 14.3601108,5.10595682 14.3601108,6.21052632 L14.3601108,13.3795014 C14.3601108,14.4840709 13.4646803,15.3795014 12.3601108,15.3795014 L2,15.3795014 C0.8954305,15.3795014 1.02344917e-15,14.4840709 0,13.3795014 L0,6.21052632 C-1.3527075e-16,5.10595682 0.8954305,4.21052632 2,4.21052632 L3.64354863,4.21106719 C3.60836855,4.00933883 3.5900277,3.80182513 3.5900277,3.5900277 C3.5900277,1.60731015 5.19733785,0 7.1800554,0 Z M7.1800554,7.1800554 C6.2988476,7.1800554 5.58448753,7.89441547 5.58448753,8.77562327 C5.58448753,9.22206965 5.76784522,9.62569055 6.06336275,9.91528813 L6.17930026,10.0184033 L6.1800554,11.966759 L6.18678313,12.0833801 C6.24454824,12.5807188 6.66721956,12.966759 7.1800554,12.966759 C7.69289124,12.966759 8.11556256,12.5807188 8.17332767,12.0833801 L8.1800554,11.966759 L8.18081054,10.0184033 C8.54356119,9.72592663 8.77562327,9.27787545 8.77562327,8.77562327 C8.77562327,7.89441547 8.0612632,7.1800554 7.1800554,7.1800554 Z M7.1800554,2 C6.30190735,2 5.5900277,2.71187965 5.5900277,3.5900277 C5.5900277,3.81052507 5.63491029,4.02053954 5.71603793,4.21143359 L8.64407288,4.21143359 C8.72520051,4.02053954 8.7700831,3.81052507 8.7700831,3.5900277 C8.7700831,2.71187965 8.05820345,2 7.1800554,2 Z" id="形状结合"></path>
                            </g>
                        </g>
                    </g>
                </g>
            </g>
        </g>
    </g>
</svg>