<?xml version="1.0" encoding="UTF-8"?>
<svg width="18px" height="18px" viewBox="0 0 18 18" version="1.1" xmlns="http://www.w3.org/2000/svg" xmlns:xlink="http://www.w3.org/1999/xlink">
    <title>提醒</title>
    <g id="患者360" stroke="none" stroke-width="1" fill="none" fill-rule="evenodd">
        <g id="首页" transform="translate(-1741.000000, -15.000000)" stroke="#FFFFFF" stroke-width="1.8">
            <g id="提醒" transform="translate(1742.000000, 16.000000)">
                <path d="M13.5566481,9.93992916 L13.5566481,7.26819683 C13.5566481,4.98148532 11.8646598,3.06028344 9.58757834,2.47104549 L9.58757834,1.33066318 C9.58757834,0.598343171 8.93919381,0 8.14734893,0 C7.35691051,0 6.70852598,0.598343171 6.70852598,1.33066318 L6.70852598,2.47104549 C4.43144451,3.06028344 2.73945624,4.98148532 2.73945624,7.26819683 L2.73945624,9.93992916 L1.14285714,14.8571429 L14.8571429,14.8571429 L13.5566481,9.93992916 Z" id="Stroke-1-Copy-5" stroke-linejoin="bevel"></path>
                <path d="M9.14285714,5.71428571 C9.48709842,6.13417238 9.76445955,6.66493666 9.97494054,7.30657857 C10.1854215,7.94822047 10.2889865,8.94126571 10.2856355,10.2857143" id="路径-10-copy-3"></path>
                <line x1="0" y1="15.4285714" x2="16" y2="15.4285714" id="路径-11-copy-2" stroke-linecap="round" stroke-linejoin="round"></line>
            </g>
        </g>
    </g>
</svg>