<?xml version="1.0" encoding="utf-8"?>
<!-- Generator: Adobe Illustrator 24.1.3, SVG Export Plug-In . SVG Version: 6.00 Build 0)  -->
<svg version="1.1" id="图层_1" xmlns="http://www.w3.org/2000/svg" xmlns:xlink="http://www.w3.org/1999/xlink" x="0px" y="0px"
	 viewBox="0 0 24 24" style="enable-background:new 0 0 24 24;" xml:space="preserve">
<style type="text/css">
	.st0{fill:#BAD4FF;}
	.st1{fill:#3585F9;}
</style>
<g>
	<path class="st0" d="M15,3h6.9c0.3,0,0.4,0.1,0.4,0.4v6.9c0,0.3-0.1,0.4-0.4,0.4H15c-0.3,0-0.4-0.1-0.4-0.4V3.5
		C14.5,3.2,14.7,3,15,3L15,3z M15,3"/>
	<path class="st1" d="M21.5,11.2h-7.5c-0.7,0-1.2-0.5-1.2-1.2V2.5c0-0.7,0.5-1.2,1.2-1.2h7.5c0.7,0,1.2,0.5,1.2,1.2V10
		C22.7,10.7,22.1,11.2,21.5,11.2L21.5,11.2z M13.9,2.1c-0.2,0-0.4,0.2-0.4,0.4V10c0,0.2,0.2,0.4,0.4,0.4h7.5c0.2,0,0.4-0.2,0.4-0.4
		V2.5c0-0.1,0-0.2-0.1-0.3c-0.1-0.1-0.2-0.1-0.3-0.1H13.9z M21.5,22.7h-7.5c-0.7,0-1.2-0.5-1.2-1.2V14c0-0.7,0.5-1.2,1.2-1.2h7.5
		c0.7,0,1.2,0.5,1.2,1.2v7.5C22.7,22.2,22.1,22.7,21.5,22.7L21.5,22.7z M13.9,13.6c-0.2,0-0.4,0.2-0.4,0.4v7.5
		c0,0.2,0.2,0.4,0.4,0.4h7.5c0.2,0,0.4-0.2,0.4-0.4V14c0-0.2-0.2-0.4-0.4-0.4L13.9,13.6z M10.1,22.7H2.5c-0.7,0-1.2-0.5-1.2-1.2V14
		c0-0.7,0.5-1.2,1.2-1.2h7.5c0.7,0,1.2,0.5,1.2,1.2v7.5C11.2,22.2,10.7,22.7,10.1,22.7L10.1,22.7z M2.5,13.6c-0.2,0-0.4,0.2-0.4,0.4
		v7.5c0,0.2,0.2,0.4,0.4,0.4h7.5c0.2,0,0.4-0.2,0.4-0.4V14c0-0.2-0.2-0.4-0.4-0.4H2.5z M6.3,1.4c-2.1,0-3.9,1.3-4.6,3.1
		c0,0.1,0,0.3,0,0.4C1.8,5,2,5.1,2.1,5.1c0.2,0,0.3-0.1,0.4-0.3c0.6-1.6,2.1-2.6,3.8-2.6c2.2,0,4.1,1.8,4.1,4c0,2.3-1.8,4.1-4.1,4.1
		c-1.7,0-3.2-1.1-3.8-2.7C2.4,7.5,2.3,7.4,2.1,7.4c-0.1,0-0.3,0.1-0.3,0.2c-0.1,0.1-0.1,0.3,0,0.4c0.7,1.9,2.5,3.2,4.6,3.2
		c2.7,0,4.9-2.2,4.9-4.9C11.2,3.6,9,1.4,6.3,1.4L6.3,1.4z M6.3,1.4"/>
</g>
</svg>
