<?xml version="1.0" encoding="utf-8"?>
<!-- Generator: Adobe Illustrator 24.1.3, SVG Export Plug-In . SVG Version: 6.00 Build 0)  -->
<svg version="1.1" id="图层_1" xmlns="http://www.w3.org/2000/svg" xmlns:xlink="http://www.w3.org/1999/xlink" x="0px" y="0px"
	 viewBox="0 0 24 24" style="enable-background:new 0 0 24 24;" xml:space="preserve">
<style type="text/css">
	.st0{fill:#E8EBEF;}
	.st1{fill:#B6BBBF;}
</style>
<path class="st0" d="M18,7.1c-0.2-0.2-1.4,1.4-1.5,1.6c0,0-1.4-1.2-4.3,0.3c-2.8,1.4-5.6-0.6-5.6-0.6C6.5,8.3,5.7,7,5.5,7.1
	C5.4,7.2,5.3,7.3,5.3,7.4c0,0.1,0,0.2,0.1,0.3l6,7.3c0.1,0.1,0.2,0.2,0.4,0.2s0.3-0.1,0.4-0.2l6-7.3C18.3,7.6,18.2,7.3,18,7.1
	L18,7.1z M18,7.1"/>
<path class="st1" d="M11.4,14.5l6-7.3C17.6,7,17.8,7,18,7.1l0,0c0.2,0.2,0.2,0.4,0.1,0.6l-6,7.3c-0.2,0.2-0.4,0.2-0.6,0.1l0,0
	C11.3,14.9,11.2,14.7,11.4,14.5L11.4,14.5z M11.4,14.5"/>
<g>
	<path class="st1" d="M5.5,7.1L5.5,7.1C5.7,6.9,5.9,7,6.1,7.2l6,7.3c0.2,0.2,0.2,0.4-0.1,0.6l0,0c-0.2,0.2-0.4,0.2-0.6-0.1l-6-7.3
		C5.2,7.5,5.2,7.3,5.5,7.1L5.5,7.1z M5.5,7.1"/>
	<path class="st1" d="M23.9,7.9l-3.4-5.6c-0.2-0.3-0.4-0.4-0.8-0.4H4.2C3.9,1.8,3.6,2,3.5,2.3L0.1,7.9c-0.2,0.3-0.2,0.7,0.1,1
		L4.4,14l0,0c0.1,0.1,0.2,0.2,0.4,0.2c0.1,0,0.2,0,0.3-0.1c0.1-0.1,0.1-0.2,0.1-0.3c0-0.1,0-0.2-0.1-0.3l0,0L0.9,8.3l3.4-5.6h15.5
		l3.4,5.6L12,21.9l-4.7-5.7l0,0c-0.1-0.1-0.2-0.2-0.3-0.2c-0.2,0-0.4,0.2-0.4,0.4c0,0.1,0,0.2,0.1,0.2l0,0l4.7,5.7
		c0.2,0.2,0.4,0.3,0.7,0.3c0.3,0,0.5-0.1,0.7-0.3L23.8,8.9C24,8.6,24.1,8.2,23.9,7.9L23.9,7.9z M23.9,7.9"/>
</g>
</svg>
