<?xml version="1.0" encoding="utf-8"?>
<!-- Generator: Adobe Illustrator 24.1.3, SVG Export Plug-In . SVG Version: 6.00 Build 0)  -->
<svg version="1.1" id="图层_1" xmlns="http://www.w3.org/2000/svg" xmlns:xlink="http://www.w3.org/1999/xlink" x="0px" y="0px"
	 viewBox="0 0 24 24" style="enable-background:new 0 0 24 24;" xml:space="preserve">
<style type="text/css">
	.st0{fill:#E8EBEF;}
	.st1{fill:#B6BBBF;}
</style>
<path class="st0" d="M5.4,4h15c0.5,0,0.8,0.3,0.8,0.8v16.7c0,0.5-0.3,0.8-0.8,0.8h-15c-0.5,0-0.8-0.3-0.8-0.8V4.8
	C4.6,4.2,4.9,4,5.4,4L5.4,4z M5.4,4"/>
<path class="st1" d="M5.9,6.9h11.7c0.3,0,0.4,0.1,0.4,0.4v0c0,0.3-0.1,0.4-0.4,0.4H5.9c-0.3,0-0.4-0.1-0.4-0.4v0
	C5.5,7.1,5.6,6.9,5.9,6.9L5.9,6.9z M5.9,6.9"/>
<path class="st1" d="M5.9,11.8h11.7c0.3,0,0.4,0.1,0.4,0.4v0c0,0.3-0.1,0.4-0.4,0.4H5.9c-0.3,0-0.4-0.1-0.4-0.4v0
	C5.5,12,5.6,11.8,5.9,11.8L5.9,11.8z M5.9,11.8"/>
<path class="st1" d="M5.9,16.7h11.7c0.3,0,0.4,0.1,0.4,0.4v0c0,0.3-0.1,0.4-0.4,0.4H5.9c-0.3,0-0.4-0.1-0.4-0.4v0
	C5.5,16.9,5.6,16.7,5.9,16.7L5.9,16.7z M5.9,16.7"/>
<path class="st1" d="M20.5,1.5h-3.3c-0.2,0-0.4,0.2-0.4,0.4c0,0.2,0.2,0.4,0.4,0.4v0h3.3c0.2,0,0.4,0.2,0.4,0.4v19
	c0,0.2-0.2,0.4-0.4,0.4H3c-0.2,0-0.4-0.2-0.4-0.4v-19c0-0.2,0.2-0.4,0.4-0.4h3.3v0c0,0,0,0,0,0c0.2,0,0.4-0.2,0.4-0.4
	c0-0.2-0.2-0.4-0.4-0.4c0,0,0,0,0,0v0H3c-0.7,0-1.2,0.6-1.2,1.2v19C1.7,22.4,2.3,23,3,23h17.5c0.7,0,1.2-0.6,1.2-1.2v-19
	C21.7,2.1,21.2,1.5,20.5,1.5L20.5,1.5z M20.5,1.5"/>
<path class="st1" d="M9.6,1.5h4.2c0.3,0,0.4,0.1,0.4,0.4v0c0,0.3-0.1,0.4-0.4,0.4H9.6c-0.3,0-0.4-0.1-0.4-0.4v0
	C9.2,1.6,9.4,1.5,9.6,1.5L9.6,1.5z M9.6,1.5"/>
</svg>
