<?xml version="1.0" encoding="utf-8"?>
<!-- Generator: Adobe Illustrator 24.1.3, SVG Export Plug-In . SVG Version: 6.00 Build 0)  -->
<svg version="1.1" id="图层_1" xmlns="http://www.w3.org/2000/svg" xmlns:xlink="http://www.w3.org/1999/xlink" x="0px" y="0px"
	 viewBox="0 0 24 24" style="enable-background:new 0 0 24 24;" xml:space="preserve">
<style type="text/css">
	.st0{fill:#B6BBBF;}
	.st1{fill:#E8EBEF;}
</style>
<path class="st0" d="M23.5,10.6c-0.1-0.7-0.7-1.2-1.4-1.2c0,0-0.1,0-0.1,0v0l-0.1,0c0,0-0.1,0-0.1,0c0,0-0.1,0-0.1,0
	c-0.6,0.1-1.1-0.1-1.4-0.6c-0.2-0.3-0.2-0.7-0.1-1c0.1-0.3,0.3-0.6,0.6-0.8c0.3-0.2,0.6-0.5,0.7-0.9c0.1-0.4,0-0.7-0.2-1.1l-0.1-0.2
	c-0.6-0.7-1.2-1.4-1.9-1.9c0,0,0,0,0,0c-0.6-0.5-1.5-0.4-2,0.2c0,0,0,0-0.1,0.1L17,3.3C16.7,3.8,16,4,15.5,3.9
	c-0.7-0.2-1.1-0.9-0.9-1.6c0,0,0,0,0-0.1c0.2-0.7-0.3-1.5-1.1-1.7c0,0-0.1,0-0.1,0c-0.9-0.1-1.9-0.1-2.8,0c0,0,0,0,0,0
	c-0.4,0-0.7,0.2-0.9,0.5C9.4,1.3,9.3,1.7,9.3,2.1c0,0,0,0.1,0,0.1c0,0,0,0.1,0,0.1c0.1,0.5-0.1,1.1-0.6,1.5c0,0,0,0,0,0
	C8.1,4.1,7.3,3.9,7,3.3c-0.4-0.6-1.2-1-2-0.5L4.8,2.9c-0.7,0.6-1.4,1.2-2,2c-0.2,0.3-0.3,0.7-0.3,1c0,0.4,0.2,0.7,0.5,0.9
	c0,0,0,0,0.1,0.1L3.3,7C3.8,7.3,4,7.9,3.9,8.4c0,0,0,0.1,0,0.1c-0.1,0.6-0.7,1-1.2,1c-0.1,0-0.2,0-0.4,0c-0.8-0.2-1.5,0.3-1.7,1.1
	c0,0,0,0.1,0,0.1c-0.1,0.9-0.1,1.9,0,2.8c0,0,0,0,0,0c0.1,0.7,0.7,1.3,1.4,1.3c0,0,0.1,0,0.1,0c0,0,0.1,0,0.1,0c0,0,0,0,0.1,0
	c0.5-0.1,1.1,0.1,1.5,0.6c0.2,0.3,0.2,0.6,0.1,1c-0.1,0.3-0.3,0.6-0.6,0.8c-0.3,0.2-0.6,0.5-0.7,0.9c-0.1,0.4,0,0.7,0.2,1.1l0.1,0.2
	c0.6,0.7,1.2,1.4,2,2c0,0,0,0,0,0c0.6,0.5,1.5,0.4,2-0.2c0,0,0,0,0.1-0.1L7,20.7c0.3-0.5,0.9-0.7,1.4-0.6c0.7,0.2,1.1,0.9,0.9,1.6
	c0,0,0,0,0,0.1c-0.2,0.7,0.3,1.5,1,1.7c0,0,0.1,0,0.1,0c0,0,0.1,0,0.1,0c0.5,0.1,0.9,0.1,1.4,0.1c0.5,0,1,0,1.4-0.1
	c0.4-0.1,0.7-0.2,0.9-0.5c0.2-0.3,0.3-0.7,0.3-1.1c0,0,0-0.1,0-0.1c-0.1-0.6,0.1-1.2,0.6-1.5c0,0,0,0,0,0c0.6-0.3,1.4-0.1,1.7,0.5
	c0.4,0.7,1.2,1,2,0.5l0.2-0.1c0.7-0.6,1.4-1.2,2-2c0.2-0.3,0.3-0.7,0.3-1c0-0.4-0.2-0.7-0.5-0.9c0,0,0,0-0.1-0.1L20.7,17
	c-0.5-0.3-0.7-0.9-0.6-1.4c0,0,0-0.1,0-0.1c0.1-0.6,0.7-1,1.2-1c0.1,0,0.2,0,0.4,0c0.8,0.2,1.5-0.3,1.7-1.1c0,0,0-0.1,0-0.1
	C23.6,12.5,23.6,11.5,23.5,10.6L23.5,10.6z M22.7,13.3L22.7,13.3L22.7,13.3c0,0.1,0,0.1,0,0.1c-0.1,0.3-0.3,0.5-0.6,0.5
	c-0.1,0-0.1,0-0.2,0l0,0l0,0c-0.2,0-0.3-0.1-0.5-0.1c-0.9,0-1.8,0.6-2,1.5l0,0l0,0c-0.2,0.9,0.2,1.8,0.9,2.3l0.1,0.1
	c0.1,0.1,0.2,0.3,0.2,0.4c0,0.2,0,0.3-0.1,0.5c-0.5,0.7-1.2,1.3-1.8,1.8l-0.1,0.1c-0.1,0.1-0.2,0.1-0.3,0.1c-0.2,0-0.4-0.1-0.6-0.3
	c-0.4-0.6-1.1-1-1.8-1c-0.4,0-0.7,0.1-1.1,0.3l0,0l0,0c-0.8,0.5-1.2,1.4-0.9,2.3l0,0l0,0l0,0v0l0,0.1c0,0.2,0,0.3-0.1,0.5
	c-0.1,0.1-0.3,0.2-0.4,0.3c-0.4,0.1-0.9,0.1-1.3,0.1c-0.4,0-0.9,0-1.3-0.1l0,0c0,0,0,0,0,0c-0.4-0.1-0.6-0.5-0.5-0.8v0
	c0.3-1.1-0.4-2.2-1.5-2.5c-0.9-0.2-1.8,0.1-2.3,0.9l-0.1,0.1c-0.1,0.2-0.3,0.2-0.5,0.2c-0.1,0-0.3-0.1-0.4-0.1l0,0l0,0
	C4.6,20,4,19.3,3.5,18.7l-0.1-0.1c-0.1-0.1-0.1-0.3-0.1-0.5c0-0.2,0.2-0.3,0.3-0.4c0.5-0.3,0.8-0.7,1-1.3c0.1-0.5,0.1-1.1-0.2-1.6
	l0,0l0,0c-0.4-0.6-1.1-1-1.8-1c-0.2,0-0.3,0-0.5,0.1h0l0,0h0l-0.1,0c0,0,0,0,0,0c-0.3,0-0.6-0.2-0.6-0.6v0c-0.1-0.9-0.1-1.8,0-2.6
	l0-0.1l0,0c0.1-0.3,0.3-0.5,0.6-0.5c0.1,0,0.1,0,0.2,0l0,0l0,0c0.2,0,0.3,0.1,0.5,0.1c0.9,0,1.8-0.6,2-1.5l0,0l0,0
	c0.2-0.9-0.2-1.8-0.9-2.3L3.6,6.3C3.5,6.2,3.4,6,3.3,5.8c0-0.2,0-0.3,0.1-0.5C4,4.7,4.6,4,5.3,3.5l0.1-0.1c0.1-0.1,0.2-0.1,0.3-0.1
	c0.2,0,0.4,0.1,0.6,0.3c0.4,0.6,1.1,1,1.8,1c0.4,0,0.7-0.1,1.1-0.3l0,0l0,0c0.8-0.5,1.2-1.4,0.9-2.3c0,0,0,0,0,0v0l0-0.1
	c0-0.2,0-0.3,0.1-0.5c0.1-0.1,0.3-0.2,0.4-0.2h0c0.4-0.1,0.9-0.1,1.3-0.1c0.4,0,0.9,0,1.3,0.1l0.1,0l0,0c0.4,0.1,0.6,0.5,0.5,0.8v0
	c-0.3,1.1,0.4,2.2,1.5,2.5c0.2,0,0.3,0.1,0.5,0.1c0.7,0,1.4-0.4,1.8-1l0.1-0.1c0.1-0.2,0.3-0.2,0.5-0.2c0.1,0,0.3,0.1,0.4,0.1l0,0
	l0,0c0.7,0.5,1.3,1.2,1.8,1.8l0.1,0.1c0.1,0.1,0.1,0.3,0.1,0.5c0,0.2-0.2,0.3-0.3,0.4c-0.5,0.3-0.8,0.7-1,1.3
	c-0.1,0.5-0.1,1.1,0.2,1.6l0,0l0,0c0.4,0.6,1.1,1,1.8,1c0.2,0,0.3,0,0.5-0.1c0,0,0,0,0,0h0l0.1,0c0,0,0,0,0,0c0.3,0,0.6,0.3,0.7,0.6
	C22.8,11.5,22.8,12.4,22.7,13.3L22.7,13.3z M22.7,13.3"/>
<path class="st1" d="M22.6,10.8L22.6,10.8L22.6,10.8c-0.1,0-0.1,0-0.1,0c0,0-0.1,0-0.1,0c-0.5,0.1-1-0.1-1.3-0.5
	c0-0.1-0.1-0.1-0.1-0.2c-0.6-0.1-1.1-0.5-1.4-1l0,0l0,0c-0.3-0.5-0.4-1-0.2-1.6c0.1-0.5,0.5-1,1-1.3c0.1-0.1,0.3-0.2,0.3-0.4
	c0-0.1,0-0.3,0-0.4c-0.2-0.1-0.3-0.3-0.5-0.4c0,0,0,0,0,0c-0.5-0.4-1.3-0.3-1.7,0.2c0,0,0,0-0.1,0.1l-0.1,0.1
	C18,5.9,17.4,6.1,16.9,6c-0.6-0.2-0.9-0.7-0.8-1.3C15,4.8,14,4.1,13.8,3C13.4,3,13,3,12.6,3c0,0,0,0,0,0c-0.3,0-0.6,0.2-0.8,0.5
	c-0.2,0.3-0.3,0.6-0.3,1c0,0,0,0.1,0,0.1c0,0,0,0.1,0,0.1c0.1,0.5-0.1,1-0.5,1.3c0,0,0,0,0,0C10.4,6.2,9.7,6,9.4,5.5
	C9.1,4.9,8.4,4.6,7.7,5L7.5,5.1C6.9,5.6,6.3,6.2,5.8,6.9C5.6,7.1,5.5,7.5,5.5,7.8c0,0.3,0.2,0.6,0.4,0.8c0,0,0,0,0.1,0l0.1,0.1
	C6.6,9,6.8,9.5,6.7,10c0,0,0,0,0,0.1c-0.1,0.5-0.6,0.9-1.1,0.9c-0.1,0-0.2,0-0.3,0c-0.7-0.2-1.4,0.2-1.5,1c0,0,0,0.1,0,0.1
	c-0.1,0.7-0.1,1.5,0,2.2c0.3,0.2,0.5,0.4,0.7,0.7l0,0l0,0c0.1,0.2,0.2,0.4,0.3,0.7c0.1,0,0.2,0,0.3,0c0,0,0.1,0,0.1,0
	c0,0,0.1,0,0.1,0c0,0,0,0,0.1,0c0.5-0.1,1,0.1,1.3,0.5c0.2,0.3,0.2,0.6,0.1,0.9c-0.1,0.3-0.3,0.6-0.5,0.7c-0.3,0.2-0.5,0.4-0.6,0.8
	c-0.1,0.3,0,0.6,0.1,1l0.1,0.1c0.2,0.2,0.4,0.5,0.6,0.7c0.4-0.6,1.1-0.9,1.8-0.9c0.7,0,1.4,0.5,1.7,1.1c0.2-0.1,0.5-0.1,0.8-0.1
	c0.6,0.2,1,0.8,0.8,1.4c0,0,0,0,0,0.1c-0.1,0.4,0,0.7,0.2,1c0.1,0,0.2,0,0.3,0c0.4,0,0.9,0,1.3-0.1c0.2,0,0.3-0.1,0.4-0.3
	c0.1-0.1,0.2-0.3,0.1-0.5l0-0.1v0l0,0l0,0l0,0c-0.2-0.9,0.2-1.8,0.9-2.3l0,0l0,0c0.3-0.2,0.7-0.3,1.1-0.3c0.7,0,1.4,0.4,1.8,1
	c0,0,0,0,0,0c0.1,0.1,0.3,0.2,0.4,0.3c0,0,0.1,0,0.1,0c0.1,0,0.2,0,0.3-0.1l0.1-0.1c0.7-0.5,1.3-1.2,1.8-1.8
	c0.1-0.1,0.2-0.3,0.1-0.5c0-0.2-0.1-0.3-0.2-0.4l-0.1-0.1c-0.8-0.5-1.2-1.4-0.9-2.3l0,0l0,0c0.2-0.9,1.1-1.5,2-1.5
	c0.2,0,0.4,0,0.5,0.1l0,0l0,0c0.1,0,0.1,0,0.2,0c0.3,0,0.6-0.2,0.6-0.5c0,0,0,0,0,0v0l0-0.1c0.1-0.8,0.1-1.7,0-2.5h0
	C22.7,10.8,22.6,10.8,22.6,10.8L22.6,10.8z M22.6,10.8"/>
<path class="st0" d="M12,8.8c-1.9,0-3.5,1.6-3.5,3.5c0,0.2,0,0.4,0.1,0.6c0,0,0,0,0,0c0,0.2,0.2,0.3,0.4,0.3c0.2,0,0.4-0.2,0.4-0.4
	c0,0,0-0.1,0-0.1l0,0c0-0.1,0-0.3,0-0.4c0-1.1,0.7-2.1,1.7-2.5c1-0.4,2.2-0.2,2.9,0.6c0.8,0.8,1,1.9,0.6,2.9c-0.4,1-1.4,1.7-2.5,1.7
	c-0.7,0-1.3-0.2-1.7-0.6l0,0c-0.1-0.1-0.2-0.1-0.2-0.1c-0.1,0-0.2,0-0.3,0.1c-0.1,0.1-0.1,0.2-0.1,0.3c0,0.1,0.1,0.2,0.1,0.3
	c0,0,0,0,0,0c0.6,0.5,1.4,0.8,2.2,0.8c1.9,0,3.5-1.6,3.5-3.5S13.9,8.8,12,8.8L12,8.8z M12,8.8"/>
</svg>
