<?xml version="1.0" encoding="UTF-8"?>
<svg width="24px" height="21px" viewBox="0 0 24 21" version="1.1" xmlns="http://www.w3.org/2000/svg" xmlns:xlink="http://www.w3.org/1999/xlink">
    <title>已映射_icon</title>
    <g id="页面-1" stroke="none" stroke-width="1" fill="none" fill-rule="evenodd">
        <g id="全部词典-选中词条_UX" transform="translate(-707.000000, -260.000000)">
            <rect fill="#F3F8FC" x="0" y="0" width="1366" height="768"></rect>
            <rect id="矩形" fill="#FFFFFF" x="223" y="70" width="1133" height="698"></rect>
            <g id="已映射_icon" transform="translate(709.101177, 262.783026)" stroke="#2E69ED" stroke-linecap="round" stroke-linejoin="round" stroke-width="2">
                <path d="M9,4.43394827 L9,11.9895038 C9,14.4441027 7.65685425,15.4339483 6,15.4339483 C4.34314575,15.4339483 3,14.4441027 3,11.9895038 L3,4.43394827" id="路径" transform="translate(6.000000, 9.933948) rotate(40.000000) translate(-6.000000, -9.933948) "></path>
                <path d="M15.7976466,1 L15.7976466,8.55555556 C15.7976466,11.0101544 14.4545008,12 12.7976466,12 C11.1407923,12 9.7976466,11.0101544 9.7976466,8.55555556 L9.7976466,1" id="路径" transform="translate(12.797647, 6.500000) scale(1, -1) rotate(-40.000000) translate(-12.797647, -6.500000) "></path>
            </g>
        </g>
    </g>
</svg>