<?xml version="1.0" encoding="UTF-8"?>
<svg width="19px" height="12px" viewBox="0 0 19 12" version="1.1" xmlns="http://www.w3.org/2000/svg" xmlns:xlink="http://www.w3.org/1999/xlink">
    <title>未映射_icon</title>
    <g id="页面-1" stroke="none" stroke-width="1" fill="none" fill-rule="evenodd">
        <g id="全部词典-选中词条_UX" transform="translate(-709.000000, -381.000000)">
            <rect fill="#F3F8FC" x="0" y="0" width="1366" height="768"></rect>
            <rect id="矩形" fill="#FFFFFF" x="223" y="70" width="1133" height="698"></rect>
            <g id="未映射_icon" transform="translate(709.000000, 382.000000)" stroke="#6C6C6C" stroke-linecap="round" stroke-linejoin="round">
                <path d="M18,1.3086513 L18,4.86420686 C18,7.31880574 16.6568542,8.3086513 15,8.3086513 C13.3431458,8.3086513 12,7.31880574 12,4.86420686 L12,1.3086513" id="路径" transform="translate(15.000000, 4.808651) scale(1, -1) rotate(-90.000000) translate(-15.000000, -4.808651) "></path>
                <path d="M7,1.3086513 L7,4.86420686 C7,7.31880574 5.65685425,8.3086513 4,8.3086513 C2.34314575,8.3086513 1,7.31880574 1,4.86420686 L1,1.3086513" id="路径" transform="translate(4.000000, 4.808651) scale(-1, -1) rotate(-90.000000) translate(-4.000000, -4.808651) "></path>
                <line x1="9.69058197" y1="0" x2="9.69058197" y2="10" id="路径-2"></line>
            </g>
        </g>
    </g>
</svg>