<?xml version="1.0" encoding="UTF-8"?>
<svg width="142px" height="80px" viewBox="0 0 142 80" version="1.1" xmlns="http://www.w3.org/2000/svg" xmlns:xlink="http://www.w3.org/1999/xlink">
    <title>LOGO</title>
    <defs>
        <filter x="-1.7%" y="-11.8%" width="103.4%" height="123.5%" filterUnits="objectBoundingBox" id="filter-1">
            <feOffset dx="0" dy="2" in="SourceAlpha" result="shadowOffsetOuter1"></feOffset>
            <feGaussianBlur stdDeviation="1" in="shadowOffsetOuter1" result="shadowBlurOuter1"></feGaussianBlur>
            <feColorMatrix values="0 0 0 0 0.176470588   0 0 0 0 0.352941176   0 0 0 0 0.980392157  0 0 0 0.5 0" type="matrix" in="shadowBlurOuter1" result="shadowMatrixOuter1"></feColorMatrix>
            <feMerge>
                <feMergeNode in="shadowMatrixOuter1"></feMergeNode>
                <feMergeNode in="SourceGraphic"></feMergeNode>
            </feMerge>
        </filter>
        <polygon id="path-2" points="0 0 85.7179533 0 85.7179533 68 0 68"></polygon>
        <polygon id="path-4" points="1.27387767e-14 6.36938834e-15 28.4999763 6.36938834e-15 28.4999763 26.1474334 1.27387767e-14 26.1474334"></polygon>
        <path d="M62.4834823,0 C62.0747186,0.449998682 61.6041024,0.880276306 61.0922513,1.26842258 L61.0922513,1.26842258 C59.6391679,2.37369823 57.8391732,2.92499143 56.0391785,2.92499143 L56.0391785,2.92499143 L0,2.92499143 L0.0609559967,9.75923436 L5.97368768,9.75923436 C6.54739118,9.75923436 6.99649345,10.1886156 6.99649345,10.7614227 L6.99649345,10.7614227 L6.97677239,22.8127818 C6.97677239,23.181207 7.26272773,23.4671623 7.61053547,23.4671623 L7.61053547,23.4671623 C13.2785468,23.4671623 55.6089008,23.4877798 55.6501358,23.4877798 L55.6501358,23.4877798 C66.3102639,23.4877798 76.2532627,17.799151 81.6138047,8.57238525 L81.6138047,8.57238525 C83.1888001,5.85177569 84.3344143,2.96622637 84.9690738,0 L84.9690738,0 L62.4834823,0 Z" id="path-6"></path>
    </defs>
    <g id="页面-1" stroke="none" stroke-width="1" fill="none" fill-rule="evenodd">
        <g id="登录页-BI" transform="translate(-54.000000, -54.000000)">
            <g id="LOGO" filter="url(#filter-1)" transform="translate(60.000000, 60.000000)">
                <g transform="translate(0.000000, 0.000000)" id="编组">
                    <g transform="translate(28.067189, 0.000000)">
                        <g>
                            <mask id="mask-3" fill="white">
                                <use xlink:href="#path-2"></use>
                            </mask>
                            <g id="Clip-2"></g>
                            <path d="M62.2961322,35.8780722 C60.5400617,37.6601387 58.0829972,38.5771679 55.5811121,38.5762721 L46.9011574,38.5762721 L54.2974505,24.6003164 C56.003322,21.3759234 60.3554009,20.5601888 62.9908513,23.0826913 C63.1091777,23.1947428 63.1997153,23.2942445 63.2597748,23.3794036 C66.0942287,27.4114635 65.6549869,32.4708113 62.2961322,35.8780722 M76.8081415,7.26012813 C76.7740779,7.22247884 76.7104327,7.1579372 76.6189987,7.07008885 C64.5604682,-4.6011917 44.6475784,-1.37142029 36.7457091,13.434612 L23.3300113,38.575375 L0,38.5744786 L0.0519918796,45.4078251 L6.98125445,45.4078251 L6.98035804,58.4810936 C6.98035804,58.8315906 7.25466002,59.1166495 7.60605342,59.1175459 C8.45585172,59.1175459 10.1411058,59.1193388 12.3713781,59.1211316 L7.63473859,68.0000896 L25.7861794,68.0000896 C29.1952332,68.0000896 32.3246065,66.1158322 33.9193229,63.1029924 L36.0178228,59.1390598 C46.4161987,59.1471275 55.6250363,59.1542988 55.6474465,59.1542988 C66.3075747,59.1542988 76.2425057,53.4513275 81.616494,44.2326294 C88.2624904,32.8275831 86.9510401,18.3263308 76.8081415,7.26012813" id="Fill-1" fill="#2D5AFA" mask="url(#mask-3)"></path>
                        </g>
                        <g transform="translate(72.789528, 41.775565)">
                            <mask id="mask-5" fill="white">
                                <use xlink:href="#path-4"></use>
                            </mask>
                            <g id="Clip-4"></g>
                            <path d="M28.5005141,26.1474334 L12.5461784,26.1474334 C7.78533576,26.1474334 3.41263941,23.5173614 1.18147064,19.3113976 L1.27387767e-14,17.0838145 C4.91054338,14.5057344 9.10485381,10.5776583 11.9895067,5.62677635 C13.0535474,3.82588521 13.8925888,1.94431701 14.5469693,6.36938834e-15 L28.5005141,26.1474334 Z" id="Fill-3" fill="#06C6C6" mask="url(#mask-5)"></path>
                        </g>
                    </g>
                    <g transform="translate(28.061272, 35.658362)">
                        <mask id="mask-7" fill="white">
                            <use xlink:href="#path-6"></use>
                        </mask>
                        <g id="Clip-6"></g>
                        <path d="M62.4834823,0 C62.0747186,0.449998682 61.6041024,0.880276306 61.0922513,1.26842258 L61.0922513,1.26842258 C59.6391679,2.37369823 57.8391732,2.92499143 56.0391785,2.92499143 L56.0391785,2.92499143 L0,2.92499143 L0.0609559967,9.75923436 L5.97368768,9.75923436 C6.54739118,9.75923436 6.99649345,10.1886156 6.99649345,10.7614227 L6.99649345,10.7614227 L6.97677239,22.8127818 C6.97677239,23.181207 7.26272773,23.4671623 7.61053547,23.4671623 L7.61053547,23.4671623 C13.2785468,23.4671623 55.6089008,23.4877798 55.6501358,23.4877798 L55.6501358,23.4877798 C66.3102639,23.4877798 76.2532627,17.799151 81.6138047,8.57238525 L81.6138047,8.57238525 C83.1888001,5.85177569 84.3344143,2.96622637 84.9690738,0 L84.9690738,0 L62.4834823,0 Z" id="Fill-5" mask="url(#mask-7)"></path>
                    </g>
                    <g transform="translate(0.000000, 34.638245)" fill="#10D6E0">
                        <polygon id="Fill-7" points="7.0771705 11.3530544 11.7734715 11.3530544 11.7734715 6.65675341 7.0771705 6.65675341"></polygon>
                        <polygon id="Fill-9" points="0 4.16293601 4.16293601 4.16293601 4.16293601 0 0 0"></polygon>
                        <polygon id="Fill-10" points="13.4883071 17.4199689 18.698252 17.4199689 18.698252 12.2091276 13.4883071 12.2091276"></polygon>
                        <polygon id="Fill-11" points="19.2430014 9.75618656 15.0316592 4.7022173 20.084732 0.490875056 24.2969707 5.54484431"></polygon>
                        <polygon id="Fill-12" points="22.708798 22.739276 31.1547892 22.739276 31.1547892 14.2932848 22.708798 14.2932848"></polygon>
                    </g>
                </g>
            </g>
        </g>
    </g>
</svg>